<svg width="330" height="220" version="1.1" xmlns="http://www.w3.org/2000/svg" desc="Created with imagetracer.js version 1.2.6" ><path fill="rgb(181,137,9)" stroke="rgb(181,137,9)" stroke-width="1" opacity="0.996078431372549" d="M 168.5 62 L 169 65.5 L 168 65.5 L 168.5 62 Z " /><path fill="rgb(181,137,9)" stroke="rgb(181,137,9)" stroke-width="1" opacity="0.996078431372549" d="M 146.5 63 L 147.5 65 L 146.5 63 Z " /><path fill="rgb(181,137,9)" stroke="rgb(181,137,9)" stroke-width="1" opacity="0.996078431372549" d="M 187.5 64 L 186.5 66 L 187.5 64 Z " /><path fill="rgb(181,137,9)" stroke="rgb(181,137,9)" stroke-width="1" opacity="0.996078431372549" d="M 141.5 68 L 143.5 71 L 141.5 68 Z " /><path fill="rgb(181,137,9)" stroke="rgb(181,137,9)" stroke-width="1" opacity="0.996078431372549" d="M 166.5 73 L 167.5 75 Q 164.7 75.7 166.5 73 Z " /><path fill="rgb(181,137,9)" stroke="rgb(181,137,9)" stroke-width="1" opacity="0.996078431372549" d="M 171.5 74 L 172.5 76 L 171.5 74 Z " /><path fill="rgb(181,137,9)" stroke="rgb(181,137,9)" stroke-width="1" opacity="0.996078431372549" d="M 186.5 74 L 185.5 76 L 186.5 74 Z " /><path fill="rgb(181,137,9)" stroke="rgb(181,137,9)" stroke-width="1" opacity="0.996078431372549" d="M 163.5 76 L 166 80.5 L 163 78.5 L 163.5 76 Z " /><path fill="rgb(181,137,9)" stroke="rgb(181,137,9)" stroke-width="1" opacity="0.996078431372549" d="M 168.5 76 L 171 77.5 L 169.5 77 L 167.5 78 L 168.5 76 Z " /><path fill="rgb(181,137,9)" stroke="rgb(181,137,9)" stroke-width="1" opacity="0.996078431372549" d="M 151.5 77 L 153.5 80 L 151 79.5 L 151.5 77 Z " /><path fill="rgb(181,137,9)" stroke="rgb(181,137,9)" stroke-width="1" opacity="0.996078431372549" d="M 160.5 78 L 161 80 L 163 80.5 L 161 81.5 L 160.5 80 L 158.5 81 L 158.5 80 Q 161 80.7 160.5 78 Z " /><path fill="rgb(181,137,9)" stroke="rgb(181,137,9)" stroke-width="1" opacity="0.996078431372549" d="M 154.5 81 L 158.5 83 L 160 82.5 L 157 84 L 156.5 86 L 154.5 81 Z " /><path fill="rgb(181,137,9)" stroke="rgb(181,137,9)" stroke-width="1" opacity="0.996078431372549" d="M 177.5 81 L 179 81.5 L 177 82.5 L 177.5 84 Q 175.3 84.8 176 82.5 L 177.5 81 Z " /><path fill="rgb(181,137,9)" stroke="rgb(181,137,9)" stroke-width="1" opacity="0.996078431372549" d="M 125.5 85 L 126 87.5 L 125 87.5 L 125.5 85 Z " /><path fill="rgb(181,137,9)" stroke="rgb(181,137,9)" stroke-width="1" opacity="0.996078431372549" d="M 137.5 85 L 136.5 87 L 137.5 85 Z " /><path fill="rgb(181,137,9)" stroke="rgb(181,137,9)" stroke-width="1" opacity="0.996078431372549" d="M 145.5 86 L 148 86.5 L 144.5 88 L 145.5 86 Z " /><path fill="rgb(181,137,9)" stroke="rgb(181,137,9)" stroke-width="1" opacity="0.996078431372549" d="M 206.5 86 L 207 88.5 L 206 88.5 L 206.5 86 Z " /><path fill="rgb(181,137,9)" stroke="rgb(181,137,9)" stroke-width="1" opacity="0.996078431372549" d="M 152.5 87 L 155 87.5 L 152.5 88 L 152.5 87 Z " /><path fill="rgb(181,137,9)" stroke="rgb(181,137,9)" stroke-width="1" opacity="0.996078431372549" d="M 186.5 87 L 187.5 89 L 186.5 87 Z " /><path fill="rgb(181,137,9)" stroke="rgb(181,137,9)" stroke-width="1" opacity="0.996078431372549" d="M 192.5 88 L 195 88.5 L 192.5 89 L 192.5 88 Z " /><path fill="rgb(181,137,9)" stroke="rgb(181,137,9)" stroke-width="1" opacity="0.996078431372549" d="M 131.5 89 L 132.5 91 L 131.5 89 Z " /><path fill="rgb(181,137,9)" stroke="rgb(181,137,9)" stroke-width="1" opacity="0.996078431372549" d="M 196.5 89 L 197 95.5 L 195.5 95 L 194 94.5 L 196 94 L 196.5 89 Z " /><path fill="rgb(181,137,9)" stroke="rgb(181,137,9)" stroke-width="1" opacity="0.996078431372549" d="M 205.5 91 L 208 91.5 L 205.5 92 L 205.5 91 Z " /><path fill="rgb(181,137,9)" stroke="rgb(181,137,9)" stroke-width="1" opacity="0.996078431372549" d="M 138.5 92 Q 141.3 93.3 139 94.5 L 138.5 96 L 138.5 92 Z " /><path fill="rgb(181,137,9)" stroke="rgb(181,137,9)" stroke-width="1" opacity="0.996078431372549" d="M 199.5 93 L 201 95.5 L 200 95.5 L 199.5 93 Z " /><path fill="rgb(181,137,9)" stroke="rgb(181,137,9)" stroke-width="1" opacity="0.996078431372549" d="M 136.5 97 L 139 98 L 140 103.5 L 139 103.5 L 136.5 97 Z " /><path fill="rgb(181,137,9)" stroke="rgb(181,137,9)" stroke-width="1" opacity="0.996078431372549" d="M 210.5 97 L 209.5 99 L 208 98.5 L 210.5 97 Z " /><path fill="rgb(181,137,9)" stroke="rgb(181,137,9)" stroke-width="1" opacity="0.996078431372549" d="M 134 99 L 136 99.5 L 133 101.5 L 134 99 Z " /><path fill="rgb(181,137,9)" stroke="rgb(181,137,9)" stroke-width="1" opacity="0.996078431372549" d="M 214.5 102 L 215 108.5 L 214 108.5 L 214.5 102 Z " /><path fill="rgb(181,137,9)" stroke="rgb(181,137,9)" stroke-width="1" opacity="0.996078431372549" d="M 211.5 103 L 213 106.5 L 211 107.5 L 211.5 103 Z " /><path fill="rgb(181,137,9)" stroke="rgb(181,137,9)" stroke-width="1" opacity="0.996078431372549" d="M 122.5 105 L 124.5 108 L 122.5 105 Z " /><path fill="rgb(181,137,9)" stroke="rgb(181,137,9)" stroke-width="1" opacity="0.996078431372549" d="M 205 105 L 207 105.5 L 205 106.5 L 205 105 Z " /><path fill="rgb(181,137,9)" stroke="rgb(181,137,9)" stroke-width="1" opacity="0.996078431372549" d="M 150.5 106 L 153 106.5 L 150.5 107 L 150.5 106 Z " /><path fill="rgb(181,137,9)" stroke="rgb(181,137,9)" stroke-width="1" opacity="0.996078431372549" d="M 154 106 L 157 106.5 L 154 108 L 154 106 Z " /><path fill="rgb(181,137,9)" stroke="rgb(181,137,9)" stroke-width="1" opacity="0.996078431372549" d="M 207.5 107 L 207 108.5 L 203.5 113 L 206 109.5 L 207.5 107 Z " /><path fill="rgb(181,137,9)" stroke="rgb(181,137,9)" stroke-width="1" opacity="0.996078431372549" d="M 127.5 108 L 126.5 110 L 127.5 108 Z " /><path fill="rgb(181,137,9)" stroke="rgb(181,137,9)" stroke-width="1" opacity="0.996078431372549" d="M 147.5 108 L 150 108.5 Q 147.9 111.8 147.5 108 Z " /><path fill="rgb(181,137,9)" stroke="rgb(181,137,9)" stroke-width="1" opacity="0.996078431372549" d="M 157.5 108 L 156.5 110 L 155 109.5 L 157.5 108 Z " /><path fill="rgb(181,137,9)" stroke="rgb(181,137,9)" stroke-width="1" opacity="0.996078431372549" d="M 194.5 111 L 193.5 113 L 194.5 111 Z " /><path fill="rgb(181,137,9)" stroke="rgb(181,137,9)" stroke-width="1" opacity="0.996078431372549" d="M 142.5 112 L 143 113.5 L 141.5 116 L 141 114.5 L 142.5 112 Z " /><path fill="rgb(181,137,9)" stroke="rgb(181,137,9)" stroke-width="1" opacity="0.996078431372549" d="M 146.5 112 L 148 112.5 L 147 114.5 L 147.5 116 L 145 115 Q 146 118 143 117 L 146.5 112 Z " /><path fill="rgb(181,137,9)" stroke="rgb(181,137,9)" stroke-width="1" opacity="0.996078431372549" d="M 153 112 Q 158.2 109.9 157 114.5 L 159 115.5 Q 158.3 112.9 161 114 L 159.5 117 L 154.5 114 L 153 114.5 L 153 112 Z " /><path fill="rgb(181,137,9)" stroke="rgb(181,137,9)" stroke-width="1" opacity="0.996078431372549" d="M 211.5 114 L 211 115.5 L 210.5 117 L 210 115.5 L 211.5 114 Z " /><path fill="rgb(181,137,9)" stroke="rgb(181,137,9)" stroke-width="1" opacity="0.996078431372549" d="M 192.5 116 L 193.5 118 L 192.5 116 Z " /><path fill="rgb(181,137,9)" stroke="rgb(181,137,9)" stroke-width="1" opacity="0.996078431372549" d="M 152.5 117 L 153 119 L 149 118.5 L 152.5 117 Z " /><path fill="rgb(181,137,9)" stroke="rgb(181,137,9)" stroke-width="1" opacity="0.996078431372549" d="M 205.5 117 L 203.5 120 L 205.5 117 Z " /><path fill="rgb(181,137,9)" stroke="rgb(181,137,9)" stroke-width="1" opacity="0.996078431372549" d="M 132.5 118 L 131.5 122 Q 129.3 122.8 130 120.5 L 132.5 118 Z " /><path fill="rgb(181,137,9)" stroke="rgb(181,137,9)" stroke-width="1" opacity="0.996078431372549" d="M 137.5 121 L 140 121.5 Q 137.9 124.8 137.5 121 Z " /><path fill="rgb(181,137,9)" stroke="rgb(181,137,9)" stroke-width="1" opacity="0.996078431372549" d="M 165.5 122 L 167 125.5 L 165.5 125 Q 163.3 125.8 164 123.5 L 165.5 122 Z " /><path fill="rgb(181,137,9)" stroke="rgb(181,137,9)" stroke-width="1" opacity="0.996078431372549" d="M 140.5 123 L 141 125.5 L 140 125.5 L 140.5 123 Z " /><path fill="rgb(181,137,9)" stroke="rgb(181,137,9)" stroke-width="1" opacity="0.996078431372549" d="M 161.5 123 L 162 126 L 159 125.5 L 161 125 L 161.5 123 Z " /><path fill="rgb(181,137,9)" stroke="rgb(181,137,9)" stroke-width="1" opacity="0.996078431372549" d="M 125.5 124 L 128 125 L 127.5 127 L 125 126.5 L 125.5 124 Z " /><path fill="rgb(181,137,9)" stroke="rgb(181,137,9)" stroke-width="1" opacity="0.996078431372549" d="M 134.5 124 Q 137.5 125.5 134.5 127 L 134.5 124 Z " /><path fill="rgb(181,137,9)" stroke="rgb(181,137,9)" stroke-width="1" opacity="0.996078431372549" d="M 193.5 124 L 192.5 126 L 193.5 124 Z " /><path fill="rgb(181,137,9)" stroke="rgb(181,137,9)" stroke-width="1" opacity="0.996078431372549" d="M 204.5 124 L 203.5 126 L 204.5 124 Z " /><path fill="rgb(181,137,9)" stroke="rgb(181,137,9)" stroke-width="1" opacity="0.996078431372549" d="M 207.5 127 L 208 128.5 L 203.5 132 L 203.5 131 Q 206.1 131.7 205 129 L 207 129 L 207.5 127 Z " /><path fill="rgb(181,137,9)" stroke="rgb(181,137,9)" stroke-width="1" opacity="0.996078431372549" d="M 204.5 135 L 206 138.5 Q 206.8 140.8 204.5 140 Q 201.8 141.3 204 142.5 L 203.5 144 L 202 140 Q 199.3 141.1 200 138.5 L 204.5 135 Z M 203 137 L 201 139 L 204 140 L 204 138 L 203 137 Z " /><path fill="rgb(181,137,9)" stroke="rgb(181,137,9)" stroke-width="1" opacity="0.996078431372549" d="M 127.5 136 L 131 138.5 L 133 142.5 L 132.5 144 L 137 144.5 L 135 145 L 135.5 148 L 136 146 L 141.5 147 Q 143.3 142.3 151.5 144 L 151 145.5 L 152 148.5 L 144.5 149 Q 143 146.5 137.5 148 L 135.5 149 L 133.5 146 L 132.5 148 L 130.5 143 L 129 144.5 L 130.5 147 L 127 142.5 L 127.5 139 L 125.5 140 L 126 138.5 L 127.5 136 Z M 128 137 L 129 139 L 130 139 L 128 137 Z M 130 140 L 131 142 Q 132 139 130 140 Z M 145 145 Q 145 148 147 146 L 147 148 L 150 148 Q 149 144 145 145 Z " /><path fill="rgb(181,137,9)" stroke="rgb(181,137,9)" stroke-width="1" opacity="0.996078431372549" d="M 199.5 141 L 201.5 144 Q 200 141.5 198.5 145 Q 193.7 143.3 195 147.5 L 195.5 149 Q 192.5 149.9 194 145.5 L 198 144 L 199.5 141 Z " /><path fill="rgb(181,137,9)" stroke="rgb(181,137,9)" stroke-width="1" opacity="0.996078431372549" d="M 155 144 L 159 144.5 L 158 149 L 155 148.5 L 157 148 L 156.5 146 L 155 146.5 L 155 144 Z " /><path fill="rgb(181,137,9)" stroke="rgb(181,137,9)" stroke-width="1" opacity="0.996078431372549" d="M 173.5 144 L 177.5 145 Q 179.3 142.3 185.5 144 Q 188.3 145.3 186 146.5 L 187 148.5 L 179.5 149 L 178 146 L 175 146.5 L 176 149 L 172.5 148 L 170.5 149 L 171 147.5 L 170.5 146 L 169 146.5 L 173.5 144 Z M 181 145 L 179 147 L 181 147 L 181 145 Z M 183 145 L 182 148 L 183 148 L 183 145 Z " /><path fill="rgb(181,137,9)" stroke="rgb(181,137,9)" stroke-width="1" opacity="0.996078431372549" d="M 153.5 145 L 154 147.5 L 153 147.5 L 153.5 145 Z " /><path fill="rgb(181,137,9)" stroke="rgb(181,137,9)" stroke-width="1" opacity="0.996078431372549" d="M 188.5 145 L 189 148.5 L 188 148.5 L 188.5 145 Z " /><path fill="rgb(181,137,9)" stroke="rgb(181,137,9)" stroke-width="1" opacity="0.996078431372549" d="M 190.5 145 L 191 147.5 L 190 147.5 L 190.5 145 Z " /><path fill="rgb(181,137,9)" stroke="rgb(181,137,9)" stroke-width="1" opacity="0.996078431372549" d="M 192.5 145 L 193 147.5 L 192 147.5 L 192.5 145 Z " /><path fill="rgb(181,137,9)" stroke="rgb(181,137,9)" stroke-width="1" opacity="0.996078431372549" d="M 159.5 146 L 160.5 148 L 162 147.5 L 159 149 L 159.5 146 Z " /><path fill="rgb(181,137,9)" stroke="rgb(181,137,9)" stroke-width="1" opacity="0.996078431372549" d="M 166.5 152 L 169 152.5 L 166.5 153 L 166.5 152 Z " /><path fill="rgb(181,137,9)" stroke="rgb(181,137,9)" stroke-width="1" opacity="0.996078431372549" d="M 155 154 L 159.5 155 L 161 154.5 L 160 156.5 L 161 160 L 163 160.5 L 162.5 163 L 157 161 L 157 159 Q 161.1 160.3 160 157 L 155 158 L 155 154 Z " /><path fill="rgb(181,137,9)" stroke="rgb(181,137,9)" stroke-width="1" opacity="0.996078431372549" d="M 175.5 155 L 176 157 L 174 156.5 L 175.5 155 Z " /><path fill="rgb(181,137,9)" stroke="rgb(181,137,9)" stroke-width="1" opacity="0.996078431372549" d="M 171.5 158 L 175 159 Q 176.3 162.3 171.5 161 L 168.5 163 L 168.5 161 L 166 160.5 Q 170.3 160.8 171.5 158 Z " /><path fill="rgb(181,137,9)" stroke="rgb(181,137,9)" stroke-width="1" opacity="0.996078431372549" d="M 149.5 159 L 150 161 L 155.5 159 L 156 161 L 146.5 163 L 146.5 162 Q 150.5 163.1 149.5 159 Z " /><path fill="rgb(215,12,35)" stroke="rgb(215,12,35)" stroke-width="1" opacity="0.984313725490196" d="M 164.5 88 Q 170.3 91.2 180.5 90 L 184.5 89 Q 189.4 91.2 190 97.5 Q 187.1 101.1 188 108.5 L 189 110.5 L 186.5 120 L 184 114.5 L 185 110 Q 179.1 110.9 177 106.5 L 176 104.5 L 179.5 103 L 182 108 Q 185.5 109.1 184 101.5 L 183 95 L 177.5 92 L 174.5 92 L 175 93.5 Q 175.7 96.1 173 95 L 171.5 92 Q 168.5 92.5 169 96.5 L 169.5 98 L 167.5 97 L 165.5 97 L 163 95.5 L 164 92.5 Q 163.3 90.3 159.5 91 Q 157 92.2 158 96 L 162 97 Q 160.7 106.4 166 110.5 L 164.5 111 L 145 90.5 Q 146.8 87.3 153.5 89 Q 155 91.5 160.5 90 L 164.5 88 Z " /><path fill="rgb(215,12,35)" stroke="rgb(215,12,35)" stroke-width="1" opacity="0.984313725490196" d="M 160 93 L 162 93.5 L 160 94.5 L 160 93 Z " /><path fill="rgb(215,12,35)" stroke="rgb(215,12,35)" stroke-width="1" opacity="0.984313725490196" d="M 169.5 106 L 172 115.5 L 179.5 124 L 182.5 125 L 185 124 L 185.5 122 L 187 128.5 L 183.5 130 L 169 115.5 L 169 114 L 166 112.5 L 167.5 113 Q 170.5 113.9 169 109.5 L 168 107.5 L 169.5 106 Z " /><path fill="rgb(207,12,39)" stroke="rgb(207,12,39)" stroke-width="1" opacity="1" d="M 162.5 56 L 165 56.5 L 162.5 57 L 162.5 56 Z " /><path fill="rgb(207,12,39)" stroke="rgb(207,12,39)" stroke-width="1" opacity="1" d="M 166.5 56 L 167 69.5 L 166 69.5 L 166.5 56 Z " /><path fill="rgb(207,12,39)" stroke="rgb(207,12,39)" stroke-width="1" opacity="1" d="M 168 56 L 172 56.5 L 169 57 L 168.5 61 L 168 56 Z " /><path fill="rgb(207,12,39)" stroke="rgb(207,12,39)" stroke-width="1" opacity="1" d="M 175.5 57 Q 177.8 56.3 177 58.5 L 175.5 57 Z " /><path fill="rgb(207,12,39)" stroke="rgb(207,12,39)" stroke-width="1" opacity="1" d="M 154.5 58 L 157 59.5 L 156.5 61 L 156 59 L 154.5 58 Z " /><path fill="rgb(207,12,39)" stroke="rgb(207,12,39)" stroke-width="1" opacity="1" d="M 145.5 63 L 141.5 68 L 145.5 63 Z " /><path fill="rgb(207,12,39)" stroke="rgb(207,12,39)" stroke-width="1" opacity="1" d="M 149.5 63 L 150.5 65 L 149.5 63 Z " /><path fill="rgb(207,12,39)" stroke="rgb(207,12,39)" stroke-width="1" opacity="1" d="M 187.5 63 L 194 68.5 L 188.5 64 L 187.5 63 Z " /><path fill="rgb(207,12,39)" stroke="rgb(207,12,39)" stroke-width="1" opacity="1" d="M 148.5 65 L 149.5 67 L 148.5 65 Z " /><path fill="rgb(207,12,39)" stroke="rgb(207,12,39)" stroke-width="1" opacity="1" d="M 174.5 65 L 175.5 67 L 174.5 65 Z " /><path fill="rgb(207,12,39)" stroke="rgb(207,12,39)" stroke-width="1" opacity="1" d="M 160.5 66 L 161 67.5 L 159 68.5 L 160.5 66 Z " /><path fill="rgb(207,12,39)" stroke="rgb(207,12,39)" stroke-width="1" opacity="1" d="M 185.5 66 L 183.5 69 L 182.5 67 Q 184 69.5 185.5 66 Z " /><path fill="rgb(207,12,39)" stroke="rgb(207,12,39)" stroke-width="1" opacity="1" d="M 150.5 68 L 154 69.5 L 155 71.5 L 154.5 73 L 156 73.5 L 154.5 74 L 153.5 71 L 150.5 68 Z " /><path fill="rgb(207,12,39)" stroke="rgb(207,12,39)" stroke-width="1" opacity="1" d="M 173.5 68 L 174.5 70 Q 171.7 70.7 173.5 68 Z " /><path fill="rgb(207,12,39)" stroke="rgb(207,12,39)" stroke-width="1" opacity="1" d="M 181.5 69 Q 185 71 180.5 73 L 179 73.5 Q 181.8 75.3 177.5 77 L 176 76.5 L 179 74.5 Q 176.8 73.3 179.5 72 L 181 71.5 Q 178.8 70.3 181.5 69 Z " /><path fill="rgb(207,12,39)" stroke="rgb(207,12,39)" stroke-width="1" opacity="1" d="M 161.5 70 L 162 72 L 160 71.5 L 161.5 70 Z " /><path fill="rgb(207,12,39)" stroke="rgb(207,12,39)" stroke-width="1" opacity="1" d="M 191.5 70 L 187.5 77 L 187 74.5 L 191.5 70 Z " /><path fill="rgb(207,12,39)" stroke="rgb(207,12,39)" stroke-width="1" opacity="1" d="M 141.5 71 L 142.5 73 L 141.5 71 Z " /><path fill="rgb(207,12,39)" stroke="rgb(207,12,39)" stroke-width="1" opacity="1" d="M 144.5 71 L 152.5 80 L 149 77.5 L 147.5 75 Q 146.2 77.3 145 74.5 L 146 73.5 L 144.5 71 Z " /><path fill="rgb(207,12,39)" stroke="rgb(207,12,39)" stroke-width="1" opacity="1" d="M 167.5 71 L 168 73.5 L 167 73.5 L 167.5 71 Z " /><path fill="rgb(207,12,39)" stroke="rgb(207,12,39)" stroke-width="1" opacity="1" d="M 192.5 72 L 191.5 74 L 192.5 72 Z " /><path fill="rgb(207,12,39)" stroke="rgb(207,12,39)" stroke-width="1" opacity="1" d="M 136.5 74 L 135.5 76 L 136.5 74 Z " /><path fill="rgb(207,12,39)" stroke="rgb(207,12,39)" stroke-width="1" opacity="1" d="M 156.5 75 L 157.5 77 Q 154.7 77.7 156.5 75 Z " /><path fill="rgb(207,12,39)" stroke="rgb(207,12,39)" stroke-width="1" opacity="1" d="M 184.5 76 Q 187.5 77.5 184.5 79 L 183 78.5 L 181.5 81 L 180 80.5 L 184.5 76 Z " /><path fill="rgb(207,12,39)" stroke="rgb(207,12,39)" stroke-width="1" opacity="1" d="M 134.5 79 L 136 79.5 L 134 80 L 133.5 82 L 133 80.5 L 134.5 79 Z " /><path fill="rgb(207,12,39)" stroke="rgb(207,12,39)" stroke-width="1" opacity="1" d="M 142.5 80 L 141.5 82 L 142.5 80 Z " /><path fill="rgb(207,12,39)" stroke="rgb(207,12,39)" stroke-width="1" opacity="1" d="M 144.5 81 L 148 82.5 L 146 83.5 L 145.5 82 L 143.5 83 L 144.5 81 Z " /><path fill="rgb(207,12,39)" stroke="rgb(207,12,39)" stroke-width="1" opacity="1" d="M 190.5 81 L 193 82.5 L 191.5 82 L 190.5 81 Z " /><path fill="rgb(207,12,39)" stroke="rgb(207,12,39)" stroke-width="1" opacity="1" d="M 188.5 82 L 189.5 84 L 188.5 82 Z " /><path fill="rgb(207,12,39)" stroke="rgb(207,12,39)" stroke-width="1" opacity="1" d="M 186.5 83 L 187 85 L 185 84.5 L 186.5 83 Z " /><path fill="rgb(207,12,39)" stroke="rgb(207,12,39)" stroke-width="1" opacity="1" d="M 127.5 84 L 131 86.5 L 128.5 85 L 127.5 84 Z " /><path fill="rgb(207,12,39)" stroke="rgb(207,12,39)" stroke-width="1" opacity="1" d="M 132.5 84 L 133 86.5 L 132 86.5 L 132.5 84 Z " /><path fill="rgb(207,12,39)" stroke="rgb(207,12,39)" stroke-width="1" opacity="1" d="M 143.5 88 L 140.5 92 L 143.5 88 Z " /><path fill="rgb(207,12,39)" stroke="rgb(207,12,39)" stroke-width="1" opacity="1" d="M 146.5 88 L 145.5 90 L 146.5 88 Z " /><path fill="rgb(207,12,39)" stroke="rgb(207,12,39)" stroke-width="1" opacity="1" d="M 155.5 89 L 160 89.5 L 155.5 90 L 155.5 89 Z " /><path fill="rgb(207,12,39)" stroke="rgb(207,12,39)" stroke-width="1" opacity="1" d="M 174.5 89 L 179 89.5 L 174.5 90 L 174.5 89 Z " /><path fill="rgb(207,12,39)" stroke="rgb(207,12,39)" stroke-width="1" opacity="1" d="M 188.5 89 L 190.5 92 L 188.5 89 Z " /><path fill="rgb(207,12,39)" stroke="rgb(207,12,39)" stroke-width="1" opacity="1" d="M 186.5 90 L 187.5 92 L 186.5 90 Z " /><path fill="rgb(207,12,39)" stroke="rgb(207,12,39)" stroke-width="1" opacity="1" d="M 145.5 91 L 155.5 102 L 145.5 91 Z " /><path fill="rgb(207,12,39)" stroke="rgb(207,12,39)" stroke-width="1" opacity="1" d="M 159.5 91 L 161.5 92 Q 162.8 89.8 164 92.5 L 163.5 95 L 160.5 93 L 158 94.5 L 159.5 91 Z " /><path fill="rgb(207,12,39)" stroke="rgb(207,12,39)" stroke-width="1" opacity="1" d="M 130 98 L 134 100.5 L 131.5 102 L 130 98 Z " /><path fill="rgb(207,12,39)" stroke="rgb(207,12,39)" stroke-width="1" opacity="1" d="M 129 106 L 132 107.5 Q 133 111.3 130 110 L 129 106 Z " /><path fill="rgb(207,12,39)" stroke="rgb(207,12,39)" stroke-width="1" opacity="1" d="M 128.5 115 Q 133.1 113.8 131 119 Q 127.3 120.5 128 117.5 Q 125.8 116.3 128.5 115 Z " /><path fill="rgb(207,12,39)" stroke="rgb(207,12,39)" stroke-width="1" opacity="1" d="M 176.5 123 L 183.5 131 L 176.5 123 Z " /><path fill="rgb(207,12,39)" stroke="rgb(207,12,39)" stroke-width="1" opacity="1" d="M 129.5 124 Q 131.8 123.3 131 125.5 L 132.5 128 L 130.5 129 L 128 125.5 L 129.5 124 Z " /><path fill="rgb(207,12,39)" stroke="rgb(207,12,39)" stroke-width="1" opacity="1" d="M 187.5 128 L 186.5 130 L 187.5 128 Z " /><path fill="rgb(207,12,39)" stroke="rgb(207,12,39)" stroke-width="1" opacity="1" d="M 139.5 129 L 142.5 131 Q 143.8 128.8 145 131.5 L 143.5 134 L 141.5 131 L 139.5 129 Z " /><path fill="rgb(207,12,39)" stroke="rgb(207,12,39)" stroke-width="1" opacity="1" d="M 190.5 129 L 191 130.5 L 189 131.5 L 190.5 129 Z " /><path fill="rgb(207,12,39)" stroke="rgb(207,12,39)" stroke-width="1" opacity="1" d="M 138.5 131 Q 142.2 133.2 137 135.5 Q 138.3 139.7 133.5 138 L 131.5 137 Q 129.7 139.8 128 135.5 L 129.5 136 Q 130.9 133.4 135.5 134 L 138.5 131 Z " /><path fill="rgb(207,12,39)" stroke="rgb(207,12,39)" stroke-width="1" opacity="1" d="M 186.5 131 L 185.5 133 L 186.5 131 Z " /><path fill="rgb(207,12,39)" stroke="rgb(207,12,39)" stroke-width="1" opacity="1" d="M 146.5 132 L 149 135.5 L 148 135.5 L 146.5 132 Z " /><path fill="rgb(207,12,39)" stroke="rgb(207,12,39)" stroke-width="1" opacity="1" d="M 183.5 133 L 182.5 135 L 183.5 133 Z " /><path fill="rgb(207,12,39)" stroke="rgb(207,12,39)" stroke-width="1" opacity="1" d="M 191.5 133 L 192 135 L 190 134.5 L 191.5 133 Z " /><path fill="rgb(207,12,39)" stroke="rgb(207,12,39)" stroke-width="1" opacity="1" d="M 177.5 134 L 181 135.5 L 179.5 136 L 177.5 134 Z " /><path fill="rgb(207,12,39)" stroke="rgb(207,12,39)" stroke-width="1" opacity="1" d="M 184.5 135 L 176.5 144 L 184.5 135 Z " /><path fill="rgb(207,12,39)" stroke="rgb(207,12,39)" stroke-width="1" opacity="1" d="M 188.5 135 L 190.5 138 L 188.5 135 Z " /><path fill="rgb(207,12,39)" stroke="rgb(207,12,39)" stroke-width="1" opacity="1" d="M 126.5 136 L 125.5 138 L 126.5 136 Z " /><path fill="rgb(207,12,39)" stroke="rgb(207,12,39)" stroke-width="1" opacity="1" d="M 151.5 136 L 154 137.5 L 152.5 138 L 151.5 136 Z " /><path fill="rgb(207,12,39)" stroke="rgb(207,12,39)" stroke-width="1" opacity="1" d="M 199.5 136 L 201 136.5 L 197.5 138 L 197.5 137 L 199.5 136 Z " /><path fill="rgb(207,12,39)" stroke="rgb(207,12,39)" stroke-width="1" opacity="1" d="M 145.5 137 L 146 139.5 L 145 139.5 L 145.5 137 Z " /><path fill="rgb(207,12,39)" stroke="rgb(207,12,39)" stroke-width="1" opacity="1" d="M 147.5 138 L 148 141.5 L 147 141.5 L 147.5 138 Z " /><path fill="rgb(207,12,39)" stroke="rgb(207,12,39)" stroke-width="1" opacity="1" d="M 155.5 138 L 156.5 140 L 155.5 138 Z " /><path fill="rgb(207,12,39)" stroke="rgb(207,12,39)" stroke-width="1" opacity="1" d="M 175.5 138 L 174.5 140 L 175.5 138 Z " /><path fill="rgb(207,12,39)" stroke="rgb(207,12,39)" stroke-width="1" opacity="1" d="M 187.5 138 L 188.5 140 L 187.5 138 Z " /><path fill="rgb(207,12,39)" stroke="rgb(207,12,39)" stroke-width="1" opacity="1" d="M 195.5 138 L 194.5 140 L 195.5 138 Z " /><path fill="rgb(207,12,39)" stroke="rgb(207,12,39)" stroke-width="1" opacity="1" d="M 158.5 140 L 159.5 142 L 158.5 140 Z " /><path fill="rgb(207,12,39)" stroke="rgb(207,12,39)" stroke-width="1" opacity="1" d="M 170.5 141 L 169.5 143 L 167.5 144 L 168.5 142 L 170.5 141 Z " /><path fill="rgb(207,12,39)" stroke="rgb(207,12,39)" stroke-width="1" opacity="1" d="M 122.5 142 L 122 143.5 L 121.5 145 L 121 143.5 L 122.5 142 Z " /><path fill="rgb(207,12,39)" stroke="rgb(207,12,39)" stroke-width="1" opacity="1" d="M 139.5 142 L 141.5 143 L 143 142.5 Q 142.3 144.8 138.5 144 L 139.5 142 Z " /><path fill="rgb(207,12,39)" stroke="rgb(207,12,39)" stroke-width="1" opacity="1" d="M 161.5 142 L 162.5 144 L 161.5 142 Z " /><path fill="rgb(207,12,39)" stroke="rgb(207,12,39)" stroke-width="1" opacity="1" d="M 180.5 142 L 182 142.5 L 179.5 144 L 180.5 142 Z " /><path fill="rgb(207,12,39)" stroke="rgb(207,12,39)" stroke-width="1" opacity="1" d="M 204.5 143 L 200.5 148 L 204.5 143 Z " /><path fill="rgb(207,12,39)" stroke="rgb(207,12,39)" stroke-width="1" opacity="1" d="M 128.5 145 L 129.5 147 L 128.5 145 Z " /><path fill="rgb(207,12,39)" stroke="rgb(207,12,39)" stroke-width="1" opacity="1" d="M 168.5 145 L 169 148.5 L 168 148.5 L 168.5 145 Z " /><path fill="rgb(207,12,39)" stroke="rgb(207,12,39)" stroke-width="1" opacity="1" d="M 197 148 L 199 148.5 L 198 149.5 L 202.5 155 L 197 148 Z " /><path fill="rgb(207,12,39)" stroke="rgb(207,12,39)" stroke-width="1" opacity="1" d="M 137.5 149 L 140 149.5 L 136 152.5 Q 139.1 150.8 137.5 149 Z " /><path fill="rgb(207,12,39)" stroke="rgb(207,12,39)" stroke-width="1" opacity="1" d="M 148.5 149 Q 153.8 147.8 155 150.5 L 151.5 152 L 149.5 152 L 148 151.5 L 148.5 149 Z " /><path fill="rgb(207,12,39)" stroke="rgb(207,12,39)" stroke-width="1" opacity="1" d="M 185.5 149 L 191 149.5 L 185.5 150 L 185.5 149 Z " /><path fill="rgb(207,12,39)" stroke="rgb(207,12,39)" stroke-width="1" opacity="1" d="M 195.5 151 L 200 155.5 L 199 156.5 Q 199.8 158.8 197.5 158 L 199 155.5 L 197.5 154 Q 195.3 154.8 196 152.5 L 194 152.5 L 195.5 151 Z " /><path fill="rgb(207,12,39)" stroke="rgb(207,12,39)" stroke-width="1" opacity="1" d="M 179.5 152 L 184 153.5 L 180.5 154 L 179.5 152 Z " /><path fill="rgb(207,12,39)" stroke="rgb(207,12,39)" stroke-width="1" opacity="1" d="M 148.5 154 L 147.5 156 L 148.5 154 Z " /><path fill="rgb(207,12,39)" stroke="rgb(207,12,39)" stroke-width="1" opacity="1" d="M 185.5 154 L 184.5 156 L 185.5 154 Z " /><path fill="rgb(207,12,39)" stroke="rgb(207,12,39)" stroke-width="1" opacity="1" d="M 177.5 155 L 179 155.5 L 176.5 157 L 177.5 155 Z " /><path fill="rgb(207,12,39)" stroke="rgb(207,12,39)" stroke-width="1" opacity="1" d="M 188.5 155 L 187.5 157 L 188.5 155 Z " /><path fill="rgb(207,12,39)" stroke="rgb(207,12,39)" stroke-width="1" opacity="1" d="M 144.5 156 L 143.5 158 L 144.5 156 Z " /><path fill="rgb(207,12,39)" stroke="rgb(207,12,39)" stroke-width="1" opacity="1" d="M 190 156 L 193 157.5 L 190 158 L 190 156 Z " /><path fill="rgb(207,12,39)" stroke="rgb(207,12,39)" stroke-width="1" opacity="1" d="M 176.5 159 L 174.5 162 L 173 161.5 L 176.5 159 Z " /><path fill="rgb(207,12,39)" stroke="rgb(207,12,39)" stroke-width="1" opacity="1" d="M 178.5 160 L 181 160.5 L 178.5 161 L 178.5 160 Z " /><path fill="rgb(207,12,39)" stroke="rgb(207,12,39)" stroke-width="1" opacity="1" d="M 165.5 161 L 164.5 163 L 165.5 161 Z " /><path fill="rgb(234,193,0)" stroke="rgb(234,193,0)" stroke-width="1" opacity="0.984313725490196" d="M 145.5 64 L 144.5 66 L 145.5 64 Z " /><path fill="rgb(234,193,0)" stroke="rgb(234,193,0)" stroke-width="1" opacity="0.984313725490196" d="M 188.5 64 L 191.5 68 L 188.5 64 Z " /><path fill="rgb(234,193,0)" stroke="rgb(234,193,0)" stroke-width="1" opacity="0.984313725490196" d="M 168.5 66 L 169 69.5 L 168 69.5 L 168.5 66 Z " /><path fill="rgb(234,193,0)" stroke="rgb(234,193,0)" stroke-width="1" opacity="0.984313725490196" d="M 185.5 67 L 184.5 69 L 185.5 67 Z " /><path fill="rgb(234,193,0)" stroke="rgb(234,193,0)" stroke-width="1" opacity="0.984313725490196" d="M 189.5 71 L 187.5 74 L 189.5 71 Z " /><path fill="rgb(234,193,0)" stroke="rgb(234,193,0)" stroke-width="1" opacity="0.984313725490196" d="M 147.5 73 L 150.5 77 L 147.5 73 Z " /><path fill="rgb(234,193,0)" stroke="rgb(234,193,0)" stroke-width="1" opacity="0.984313725490196" d="M 171.5 75 L 169.5 78 L 168 77.5 L 171.5 75 Z " /><path fill="rgb(234,193,0)" stroke="rgb(234,193,0)" stroke-width="1" opacity="0.984313725490196" d="M 176.5 75 L 175.5 77 L 176.5 75 Z " /><path fill="rgb(234,193,0)" stroke="rgb(234,193,0)" stroke-width="1" opacity="0.984313725490196" d="M 156.5 77 L 158 79.5 L 157 79.5 L 156.5 77 Z " /><path fill="rgb(234,193,0)" stroke="rgb(234,193,0)" stroke-width="1" opacity="0.984313725490196" d="M 182.5 77 L 181.5 79 L 182.5 77 Z " /><path fill="rgb(234,193,0)" stroke="rgb(234,193,0)" stroke-width="1" opacity="0.984313725490196" d="M 173.5 80 L 173.5 83 Q 171.3 83.8 172 81.5 L 173.5 80 Z " /><path fill="rgb(234,193,0)" stroke="rgb(234,193,0)" stroke-width="1" opacity="0.984313725490196" d="M 182.5 80 L 181.5 82 L 180 81.5 L 182.5 80 Z " /><path fill="rgb(234,193,0)" stroke="rgb(234,193,0)" stroke-width="1" opacity="0.984313725490196" d="M 175.5 84 L 176.5 86 L 175.5 84 Z " /><path fill="rgb(234,193,0)" stroke="rgb(234,193,0)" stroke-width="1" opacity="0.984313725490196" d="M 202.5 85 L 202 86.5 L 201.5 88 L 201 86.5 L 202.5 85 Z " /><path fill="rgb(234,193,0)" stroke="rgb(234,193,0)" stroke-width="1" opacity="0.984313725490196" d="M 155.5 87 L 159 87.5 L 155.5 88 L 155.5 87 Z " /><path fill="rgb(234,193,0)" stroke="rgb(234,193,0)" stroke-width="1" opacity="0.984313725490196" d="M 125.5 92 L 126 95 L 124 94.5 L 125.5 92 Z " /><path fill="rgb(234,193,0)" stroke="rgb(234,193,0)" stroke-width="1" opacity="0.984313725490196" d="M 142.5 93 L 141.5 95 L 142.5 93 Z " /><path fill="rgb(234,193,0)" stroke="rgb(234,193,0)" stroke-width="1" opacity="0.984313725490196" d="M 146.5 94 L 160 108.5 L 159 108.5 L 157 105.5 L 146.5 94 Z " /><path fill="rgb(234,193,0)" stroke="rgb(234,193,0)" stroke-width="1" opacity="0.984313725490196" d="M 209.5 99 L 208.5 101 L 209.5 99 Z " /><path fill="rgb(234,193,0)" stroke="rgb(234,193,0)" stroke-width="1" opacity="0.984313725490196" d="M 121.5 100 L 122.5 102 L 121.5 100 Z " /><path fill="rgb(234,193,0)" stroke="rgb(234,193,0)" stroke-width="1" opacity="0.984313725490196" d="M 132.5 102 L 132 103.5 L 131.5 105 L 131 103.5 L 132.5 102 Z " /><path fill="rgb(234,193,0)" stroke="rgb(234,193,0)" stroke-width="1" opacity="0.984313725490196" d="M 207.5 102 L 206.5 104 L 207.5 102 Z " /><path fill="rgb(234,193,0)" stroke="rgb(234,193,0)" stroke-width="1" opacity="0.984313725490196" d="M 119.5 103 L 118.5 105 L 119.5 103 Z " /><path fill="rgb(234,193,0)" stroke="rgb(234,193,0)" stroke-width="1" opacity="0.984313725490196" d="M 123.5 103 L 124.5 105 L 123.5 103 Z " /><path fill="rgb(234,193,0)" stroke="rgb(234,193,0)" stroke-width="1" opacity="0.984313725490196" d="M 126.5 105 L 128 107.5 L 127 107.5 L 126.5 105 Z " /><path fill="rgb(234,193,0)" stroke="rgb(234,193,0)" stroke-width="1" opacity="0.984313725490196" d="M 142.5 106 Q 145.5 107.5 142.5 109 L 142.5 106 Z " /><path fill="rgb(234,193,0)" stroke="rgb(234,193,0)" stroke-width="1" opacity="0.984313725490196" d="M 140.5 107 L 141 111.5 L 139.5 114 L 139 112.5 L 140.5 107 Z " /><path fill="rgb(234,193,0)" stroke="rgb(234,193,0)" stroke-width="1" opacity="0.984313725490196" d="M 212.5 107 L 211.5 109 L 212.5 107 Z " /><path fill="rgb(234,193,0)" stroke="rgb(234,193,0)" stroke-width="1" opacity="0.984313725490196" d="M 148.5 108 L 149.5 110 L 148.5 108 Z " /><path fill="rgb(234,193,0)" stroke="rgb(234,193,0)" stroke-width="1" opacity="0.984313725490196" d="M 152.5 108 Q 157 107 158 109.5 L 156.5 109 Q 151.5 110 152.5 108 Z " /><path fill="rgb(234,193,0)" stroke="rgb(234,193,0)" stroke-width="1" opacity="0.984313725490196" d="M 161.5 109 L 163.5 112 L 161 111 L 161.5 109 Z " /><path fill="rgb(234,193,0)" stroke="rgb(234,193,0)" stroke-width="1" opacity="0.984313725490196" d="M 205.5 109 L 204.5 111 L 205.5 109 Z " /><path fill="rgb(234,193,0)" stroke="rgb(234,193,0)" stroke-width="1" opacity="0.984313725490196" d="M 123.5 114 L 125 116.5 L 123 115.5 L 123.5 114 Z " /><path fill="rgb(234,193,0)" stroke="rgb(234,193,0)" stroke-width="1" opacity="0.984313725490196" d="M 206.5 114 L 205.5 116 L 206.5 114 Z " /><path fill="rgb(234,193,0)" stroke="rgb(234,193,0)" stroke-width="1" opacity="0.984313725490196" d="M 133.5 118 L 134 119.5 L 132 120.5 L 133.5 118 Z " /><path fill="rgb(234,193,0)" stroke="rgb(234,193,0)" stroke-width="1" opacity="0.984313725490196" d="M 144.5 120 L 145 124.5 L 144 124.5 L 144.5 120 Z " /><path fill="rgb(234,193,0)" stroke="rgb(234,193,0)" stroke-width="1" opacity="0.984313725490196" d="M 155.5 120 L 146.5 130 L 155.5 120 Z " /><path fill="rgb(234,193,0)" stroke="rgb(234,193,0)" stroke-width="1" opacity="0.984313725490196" d="M 121.5 122 L 122.5 124 L 121.5 122 Z " /><path fill="rgb(234,193,0)" stroke="rgb(234,193,0)" stroke-width="1" opacity="0.984313725490196" d="M 194.5 126 L 195 127.5 L 193 128.5 L 194.5 126 Z " /><path fill="rgb(234,193,0)" stroke="rgb(234,193,0)" stroke-width="1" opacity="0.984313725490196" d="M 115.5 127 L 119.5 132 L 115.5 127 Z " /><path fill="rgb(234,193,0)" stroke="rgb(234,193,0)" stroke-width="1" opacity="0.984313725490196" d="M 133.5 127 L 134 129 L 132 128.5 L 133.5 127 Z " /><path fill="rgb(234,193,0)" stroke="rgb(234,193,0)" stroke-width="1" opacity="0.984313725490196" d="M 210.5 128 Q 213.5 129.5 210.5 131 L 209 130.5 L 210.5 128 Z " /><path fill="rgb(234,193,0)" stroke="rgb(234,193,0)" stroke-width="1" opacity="0.984313725490196" d="M 204.5 130 L 207 130.5 Q 204.9 133.8 204.5 130 Z " /><path fill="rgb(234,193,0)" stroke="rgb(234,193,0)" stroke-width="1" opacity="0.984313725490196" d="M 201.5 138 L 205 140.5 L 203.5 140 Q 201.3 139.3 202 141.5 L 203 144.5 L 201 145.5 L 202 143.5 L 199 142.5 L 200 140 L 202 139.5 L 201.5 138 Z " /><path fill="rgb(234,193,0)" stroke="rgb(234,193,0)" stroke-width="1" opacity="0.984313725490196" d="M 126 139 L 128 139.5 L 126 140.5 L 126 139 Z " /><path fill="rgb(234,193,0)" stroke="rgb(234,193,0)" stroke-width="1" opacity="0.984313725490196" d="M 129.5 140 Q 131.8 139.3 131 141.5 L 132.5 144 Q 130.8 140.9 129 142.5 L 129.5 140 Z " /><path fill="rgb(234,193,0)" stroke="rgb(234,193,0)" stroke-width="1" opacity="0.984313725490196" d="M 152.5 144 L 155 144.5 L 152 145 L 151.5 148 L 151 145.5 L 152.5 144 Z " /><path fill="rgb(234,193,0)" stroke="rgb(234,193,0)" stroke-width="1" opacity="0.984313725490196" d="M 135 145 L 143 145.5 Q 141.8 148.3 140.5 146 Q 135.1 144.1 136 147.5 L 135 147.5 L 135 145 Z " /><path fill="rgb(234,193,0)" stroke="rgb(234,193,0)" stroke-width="1" opacity="0.984313725490196" d="M 144.5 145 L 149 146 Q 150 149 147 148 Q 148.3 145 144.5 146 L 144.5 145 Z " /><path fill="rgb(234,193,0)" stroke="rgb(234,193,0)" stroke-width="1" opacity="0.984313725490196" d="M 159.5 145 L 162 146.5 L 160.5 146 Q 158.3 145.3 159 147.5 L 158 147.5 L 159.5 145 Z " /><path fill="rgb(234,193,0)" stroke="rgb(234,193,0)" stroke-width="1" opacity="0.984313725490196" d="M 180.5 145 L 181 147 L 179 146.5 L 180.5 145 Z " /><path fill="rgb(234,193,0)" stroke="rgb(234,193,0)" stroke-width="1" opacity="0.984313725490196" d="M 191.5 145 L 192.5 148 L 193.5 146 L 194 149 L 189 149 L 189 147.5 L 191 147.5 L 191.5 145 Z " /><path fill="rgb(234,193,0)" stroke="rgb(234,193,0)" stroke-width="1" opacity="0.984313725490196" d="M 154.5 146 L 157 146.5 L 154 148 L 154.5 146 Z " /><path fill="rgb(234,193,0)" stroke="rgb(234,193,0)" stroke-width="1" opacity="0.984313725490196" d="M 175.5 146 L 178 146.5 Q 178.8 148.8 176.5 148 L 175.5 147 L 173 148.5 L 175.5 146 Z " /><path fill="rgb(234,193,0)" stroke="rgb(234,193,0)" stroke-width="1" opacity="0.984313725490196" d="M 186.5 146 L 188 148.5 L 186 147.5 L 186.5 146 Z " /><path fill="rgb(234,193,0)" stroke="rgb(234,193,0)" stroke-width="1" opacity="0.984313725490196" d="M 137.5 148 L 144 148.5 L 137.5 149 L 137.5 148 Z " /><path fill="rgb(234,193,0)" stroke="rgb(234,193,0)" stroke-width="1" opacity="0.984313725490196" d="M 159.5 149 L 160 151 L 158 150.5 L 159.5 149 Z " /><path fill="rgb(234,193,0)" stroke="rgb(234,193,0)" stroke-width="1" opacity="0.984313725490196" d="M 171.5 149 L 172.5 151 Q 169.7 151.7 171.5 149 Z " /><path fill="rgb(234,193,0)" stroke="rgb(234,193,0)" stroke-width="1" opacity="0.984313725490196" d="M 160.5 152 L 164 153.5 L 163.5 160 L 162.5 153 Q 160.7 155.5 160.5 152 Z " /><path fill="rgb(234,193,0)" stroke="rgb(234,193,0)" stroke-width="1" opacity="0.984313725490196" d="M 169.5 152 L 171 152.5 L 169 153 L 169.5 159 L 170.5 155 L 171 158.5 L 167 160 L 167 153.5 L 168.5 153 L 169.5 152 Z " /><path fill="rgb(255,205,0)" stroke="rgb(255,205,0)" stroke-width="1" opacity="1" d="M 0.5 1 L 124 83.5 L 125 94 L 120.5 93 L 120 97 L 117 98.5 L 121 99 L 124.5 105 L 127 106.5 L 126.5 109 L 126 107 L 119.5 103 Q 116.8 104.3 119 105.5 L 119 108.5 L 123 114.5 L 121.5 114 L 116.5 113 L 117 114.5 Q 117.9 121.1 122.5 124 L 126 125.5 L 117.5 126 L 115 127.5 L 119.5 132 L 127 134.5 L 0.5 219 L 0.5 1 Z " /><path fill="rgb(255,205,0)" stroke="rgb(255,205,0)" stroke-width="1" opacity="1" d="M 329.5 1 L 330 218.5 L 328.5 218 L 206 136.5 L 209 131 L 212 129.5 L 215 120.5 L 215 114.5 L 214 111.5 L 215 110.5 L 215 100.5 Q 212.8 99.2 214 94.5 L 211.5 91 L 206 90.5 L 207 85.5 L 203 88.5 L 200.5 94 L 196.5 84 L 196 88 L 188.5 89 Q 186.5 85 178.5 87 Q 177.3 89.2 172.5 88 L 165.5 85 L 162.5 87 L 149.5 87 L 145.5 86 L 142.5 88 L 138 87 L 137.5 85 L 134.5 87 L 133 84.5 L 134 80 L 149.5 85 L 150.5 83 L 136 76.5 L 139.5 71 L 152.5 81 L 154 79.5 L 147.5 73 L 142 68.5 L 143.5 66 L 146.5 64 L 156.5 78 L 158 75.5 L 150 61 L 156 59 L 161.5 76 L 165 74.5 L 163 74 L 159 58.5 L 166 57 L 166 74.5 L 169.5 75 L 169.5 74 Q 166.5 74.9 168 70.5 L 169 69.5 L 169 57 L 176 58.5 L 171 76 Q 173.7 77.1 173 74.5 L 179.5 59 L 185 62.5 L 175 76.5 L 177.5 78 L 187.5 65 L 193 68.5 L 180 79.5 Q 178.9 82.8 181.5 82 L 196 72 L 198 78 L 183 84.5 Q 182.2 87.1 185.5 86 L 200 81 L 201.5 88 L 204.5 84 L 329.5 1 Z M 163 76 L 163 80 Q 160 81 161 78 L 157 78 L 157 80 L 159 82 L 154 81 L 157 86 L 157 84 L 161 83 L 161 81 L 163 82 Q 164 78 166 81 L 171 80 L 171 82 L 174 83 L 176 83 L 177 86 L 178 83 L 179 81 L 176 82 L 174 82 L 175 80 L 176 78 Q 173 77 174 80 L 172 81 L 173 79 L 174 77 Q 171 76 172 79 L 170 79 L 168 80 Q 167 77 171 78 Q 172 75 169 76 L 167 80 L 165 78 Q 166 75 163 76 Z " /><path fill="rgb(255,205,0)" stroke="rgb(255,205,0)" stroke-width="1" opacity="1" d="M 195.5 90 L 196 94 Q 190.8 95.7 192 92 L 195.5 90 Z " /><path fill="rgb(255,205,0)" stroke="rgb(255,205,0)" stroke-width="1" opacity="1" d="M 143 92 L 146 93.5 L 157 105.5 L 143 107 Q 144 99.8 141 95.5 L 143 92 Z " /><path fill="rgb(255,205,0)" stroke="rgb(255,205,0)" stroke-width="1" opacity="1" d="M 170.5 93 Q 174.3 92 173 95 L 170.5 93 Z " /><path fill="rgb(255,205,0)" stroke="rgb(255,205,0)" stroke-width="1" opacity="1" d="M 208 94 Q 210.7 92.9 210 95.5 L 210.5 97 L 207 96.5 L 208 94 Z " /><path fill="rgb(255,205,0)" stroke="rgb(255,205,0)" stroke-width="1" opacity="1" d="M 138.5 96 Q 142.1 98.9 141 106.5 L 140 106.5 L 139 98 L 137 97.5 L 138.5 96 Z " /><path fill="rgb(255,205,0)" stroke="rgb(255,205,0)" stroke-width="1" opacity="1" d="M 176.5 96 L 177 98 L 175 97.5 L 176.5 96 Z " /><path fill="rgb(255,205,0)" stroke="rgb(255,205,0)" stroke-width="1" opacity="1" d="M 179.5 96 L 181 96.5 L 178.5 98 L 179.5 96 Z " /><path fill="rgb(255,205,0)" stroke="rgb(255,205,0)" stroke-width="1" opacity="1" d="M 193.5 97 L 196 102.5 L 192 103 L 193.5 97 Z " /><path fill="rgb(255,205,0)" stroke="rgb(255,205,0)" stroke-width="1" opacity="1" d="M 210.5 102 L 211 108.5 L 209.5 108 L 207.5 109 L 209 106.5 L 210.5 102 Z " /><path fill="rgb(255,205,0)" stroke="rgb(255,205,0)" stroke-width="1" opacity="1" d="M 130.5 110 L 131 112.5 L 130 112.5 L 130.5 110 Z " /><path fill="rgb(255,205,0)" stroke="rgb(255,205,0)" stroke-width="1" opacity="1" d="M 139.5 110 L 143 123.5 L 141 124.5 Q 142.5 120.1 139.5 121 L 138 121.5 L 140 112.5 L 139.5 110 Z " /><path fill="rgb(255,205,0)" stroke="rgb(255,205,0)" stroke-width="1" opacity="1" d="M 162.5 111 L 163.5 113 Q 160.7 113.7 162.5 111 Z " /><path fill="rgb(255,205,0)" stroke="rgb(255,205,0)" stroke-width="1" opacity="1" d="M 209.5 111 Q 211.8 110.3 211 112.5 L 211.5 114 L 209.5 113 L 206 115.5 L 209.5 111 Z " /><path fill="rgb(255,205,0)" stroke="rgb(255,205,0)" stroke-width="1" opacity="1" d="M 194.5 112 L 195 114.5 L 193.5 117 L 193 114.5 L 194.5 112 Z " /><path fill="rgb(255,205,0)" stroke="rgb(255,205,0)" stroke-width="1" opacity="1" d="M 147.5 114 L 150 115 Q 151.5 118.7 148.5 118 L 148.5 119 L 154 118.5 L 153 115 Q 157.7 114 159 117.5 L 145.5 130 Q 143.3 129.3 144 125.5 L 145 120.5 L 144 117 L 148 115.5 L 147.5 114 Z " /><path fill="rgb(255,205,0)" stroke="rgb(255,205,0)" stroke-width="1" opacity="1" d="M 124.5 115 L 127 116 L 126.5 118 L 124.5 115 Z " /><path fill="rgb(255,205,0)" stroke="rgb(255,205,0)" stroke-width="1" opacity="1" d="M 132.5 119 L 131.5 121 L 132.5 119 Z " /><path fill="rgb(255,205,0)" stroke="rgb(255,205,0)" stroke-width="1" opacity="1" d="M 194.5 124 L 195 125.5 L 194 128 Q 191.3 129.1 192 126.5 L 194.5 124 Z " /><path fill="rgb(255,205,0)" stroke="rgb(255,205,0)" stroke-width="1" opacity="1" d="M 205.5 124 L 206 126.5 L 204 125.5 L 205.5 124 Z " /><path fill="rgb(255,205,0)" stroke="rgb(255,205,0)" stroke-width="1" opacity="1" d="M 201.5 127 Q 203.8 126.3 203 128.5 L 201.5 131 L 200 128.5 L 201.5 127 Z " /><path fill="rgb(255,205,0)" stroke="rgb(255,205,0)" stroke-width="1" opacity="1" d="M 127.5 137 Q 129.8 136.3 129 138.5 L 127.5 137 Z " /><path fill="rgb(255,205,0)" stroke="rgb(255,205,0)" stroke-width="1" opacity="1" d="M 202 137 L 204 137.5 L 202 138.5 L 202 137 Z " /><path fill="rgb(255,205,0)" stroke="rgb(255,205,0)" stroke-width="1" opacity="1" d="M 128.5 143 L 132 144 L 131.5 147 L 128.5 143 Z " /><path fill="rgb(255,205,0)" stroke="rgb(255,205,0)" stroke-width="1" opacity="1" d="M 200.5 144 L 202 144.5 Q 199.9 148.1 195 148 Q 193.2 143.1 199.5 145 L 200.5 144 Z " /><path fill="rgb(255,205,0)" stroke="rgb(255,205,0)" stroke-width="1" opacity="1" d="M 152.5 145 L 153 147.5 L 152 147.5 L 152.5 145 Z " /><path fill="rgb(255,205,0)" stroke="rgb(255,205,0)" stroke-width="1" opacity="1" d="M 182.5 145 L 183 147.5 L 182 147.5 L 182.5 145 Z " /><path fill="rgb(255,205,0)" stroke="rgb(255,205,0)" stroke-width="1" opacity="1" d="M 187.5 145 L 188 147.5 L 187 147.5 L 187.5 145 Z " /><path fill="rgb(255,205,0)" stroke="rgb(255,205,0)" stroke-width="1" opacity="1" d="M 145.5 146 L 146.5 148 L 145.5 146 Z " /><path fill="rgb(255,205,0)" stroke="rgb(255,205,0)" stroke-width="1" opacity="1" d="M 160 149 Q 162.7 147.9 162 150.5 L 162.5 152 L 159 151.5 L 160 149 Z " /><path fill="rgb(255,205,0)" stroke="rgb(255,205,0)" stroke-width="1" opacity="1" d="M 169 149 Q 171.7 147.9 171 150.5 L 171.5 152 L 168 151.5 L 169 149 Z " /><path fill="rgb(255,205,0)" stroke="rgb(255,205,0)" stroke-width="1" opacity="1" d="M 162.5 153 L 163 159.5 L 161 158.5 Q 160 154 162.5 153 Z " /><path fill="rgb(255,205,0)" stroke="rgb(255,205,0)" stroke-width="1" opacity="1" d="M 164 153 L 167 153 L 167 159.5 L 164 159.5 L 164 153 Z " /><path fill="rgb(255,205,0)" stroke="rgb(255,205,0)" stroke-width="1" opacity="1" d="M 169.5 153 L 170 158.5 L 169 158.5 L 169.5 153 Z " /><path fill="rgb(233,126,10)" stroke="rgb(233,126,10)" stroke-width="1" opacity="0.796078431372549" d="M 169.5 94 L 170 96.5 L 169 96.5 L 169.5 94 Z " /><path fill="rgb(206,207,160)" stroke="rgb(206,207,160)" stroke-width="1" opacity="0.996078431372549" d="M 165.5 86 L 169.5 88 L 182.5 88 L 185.5 87 L 193 97.5 L 191 97.5 L 192 100.5 L 191 100.5 L 190.5 99 L 190 111.5 L 191 114 Q 188 112.8 189 116.5 L 188 116.5 L 189 105.5 L 189 103.5 Q 188.3 97.8 191 95.5 L 184.5 88 L 173.5 90 L 165.5 87 L 162.5 89 L 150.5 89 L 146.5 88 L 145 91.5 L 183.5 131 L 187.5 129 L 186.5 131 L 180.5 135 L 177 134 Q 177.8 137.8 174.5 139 L 164.5 144 L 153 137 Q 154.8 132.5 149.5 134 L 142 128.5 Q 144.5 125 143 117.5 Q 139.7 113.8 141 105.5 L 142 101.5 L 139 94.5 L 145.5 87 L 161.5 88 L 165.5 86 Z M 144 92 L 141 95 L 143 102 L 142 107 Q 141 114 144 118 Q 146 125 143 129 L 147 130 L 164 112 L 144 92 Z M 166 119 L 164 124 L 162 121 L 160 124 L 159 126 L 171 126 L 167 124 L 166 119 Z M 163 127 Q 162 130 165 129 Q 166 126 163 127 Z M 160 131 L 160 134 L 158 133 Q 153 131 154 136 L 166 143 L 175 137 Q 177 138 176 134 L 172 133 L 167 134 L 162 134 Q 163 130 160 131 Z " /><path fill="rgb(206,207,160)" stroke="rgb(206,207,160)" stroke-width="1" opacity="0.996078431372549" d="M 205.5 87 L 206 88.5 L 203.5 92 L 203 90.5 L 205.5 87 Z " /><path fill="rgb(206,207,160)" stroke="rgb(206,207,160)" stroke-width="1" opacity="0.996078431372549" d="M 210.5 92 L 213 95.5 L 214 101.5 L 213 101.5 L 210.5 92 Z " /><path fill="rgb(206,207,160)" stroke="rgb(206,207,160)" stroke-width="1" opacity="0.996078431372549" d="M 176.5 93 L 180 95.5 L 179.5 97 L 182.5 96 L 182 97.5 Q 184.7 100.8 184 107.5 L 182 106.5 L 179.5 102 L 176 104 L 180.5 110 Q 186.8 107.8 185 113.5 L 184 115.5 L 185 118.5 Q 186 123 183.5 124 L 180.5 124 L 173 116.5 L 170 106 Q 166.7 104.7 168 109.5 L 169 112.5 L 165 109.5 L 162 101.5 L 163 97.5 L 161.5 95 Q 164 99.3 171 98 L 170 95.5 L 173 95 L 172 97.5 L 174 98 L 176.5 93 Z M 177 96 L 175 98 L 177 98 L 177 96 Z " /><path fill="rgb(206,207,160)" stroke="rgb(206,207,160)" stroke-width="1" opacity="0.996078431372549" d="M 202.5 93 L 203 95.5 L 202 95.5 L 202.5 93 Z " /><path fill="rgb(206,207,160)" stroke="rgb(206,207,160)" stroke-width="1" opacity="0.996078431372549" d="M 201.5 97 L 202 99.5 L 201 99.5 L 201.5 97 Z " /><path fill="rgb(206,207,160)" stroke="rgb(206,207,160)" stroke-width="1" opacity="0.996078431372549" d="M 198.5 99 Q 201.5 102 200 109.5 L 199 109.5 L 198.5 99 Z " /><path fill="rgb(206,207,160)" stroke="rgb(206,207,160)" stroke-width="1" opacity="0.996078431372549" d="M 192 104 L 194 104.5 L 191.5 110 L 191 106.5 L 192 104 Z " /><path fill="rgb(206,207,160)" stroke="rgb(206,207,160)" stroke-width="1" opacity="0.996078431372549" d="M 193.5 110 L 193 111.5 L 192.5 114 L 192 111.5 L 193.5 110 Z " /><path fill="rgb(206,207,160)" stroke="rgb(206,207,160)" stroke-width="1" opacity="0.996078431372549" d="M 211.5 110 L 212.5 112 L 211.5 110 Z " /><path fill="rgb(206,207,160)" stroke="rgb(206,207,160)" stroke-width="1" opacity="0.996078431372549" d="M 196.5 115 L 194 118.5 L 194.5 120 L 196 119.5 L 191.5 126 L 192 124.5 L 194 120.5 L 193 118.5 L 196.5 115 Z " /><path fill="rgb(206,207,160)" stroke="rgb(206,207,160)" stroke-width="1" opacity="0.996078431372549" d="M 211.5 115 L 212 117.5 L 211 119.5 L 212 123.5 L 208.5 130 L 208 128.5 L 211 120.5 L 210 118.5 L 211.5 115 Z " /><path fill="rgb(206,207,160)" stroke="rgb(206,207,160)" stroke-width="1" opacity="0.996078431372549" d="M 206.5 117 Q 208.8 117.8 208 121.5 L 207 121.5 L 206.5 117 Z " /><path fill="rgb(206,207,160)" stroke="rgb(206,207,160)" stroke-width="1" opacity="0.996078431372549" d="M 187.5 118 L 188 121.5 L 187 121.5 L 187.5 118 Z " /><path fill="rgb(206,207,160)" stroke="rgb(206,207,160)" stroke-width="1" opacity="0.996078431372549" d="M 187.5 125 L 188 127.5 L 187 127.5 L 187.5 125 Z " /><path fill="rgb(206,207,160)" stroke="rgb(206,207,160)" stroke-width="1" opacity="0.996078431372549" d="M 204.5 127 L 205 128.5 L 202.5 132 L 203 130.5 L 204.5 127 Z " /><path fill="rgb(206,207,160)" stroke="rgb(206,207,160)" stroke-width="1" opacity="0.996078431372549" d="M 191.5 131 L 194 131.5 L 186.5 136 L 188.5 133 L 191.5 131 Z " /><path fill="rgb(206,207,160)" stroke="rgb(206,207,160)" stroke-width="1" opacity="0.996078431372549" d="M 183.5 141 L 182.5 143 L 183.5 141 Z " /><path fill="rgb(206,207,160)" stroke="rgb(206,207,160)" stroke-width="1" opacity="0.996078431372549" d="M 199.5 153 L 201.5 156 L 199.5 153 Z " /><path fill="rgb(206,207,160)" stroke="rgb(206,207,160)" stroke-width="1" opacity="0.996078431372549" d="M 155.5 158 L 156.5 160 L 155.5 158 Z " /><path fill="rgb(206,207,160)" stroke="rgb(206,207,160)" stroke-width="1" opacity="0.996078431372549" d="M 150.5 159 L 151.5 161 Q 148.7 161.7 150.5 159 Z " /><path fill="rgb(93,154,80)" stroke="rgb(93,154,80)" stroke-width="1" opacity="0.996078431372549" d="M 127.5 85 L 128 87 Q 130.7 85.9 130 88.5 Q 133 90 132.5 95 Q 133.4 88.9 137.5 86 L 138 95.5 L 136 99 Q 139.3 97.7 138 102.5 L 140 107.5 L 138 112.5 Q 140.3 113.8 139 118.5 L 137 123 L 140.5 122 L 140 123.5 Q 140.6 129.7 138 132 L 136 132 Q 137.1 134.7 134.5 134 L 131 132 Q 132.7 136.1 128.5 135 Q 120.3 133.2 116 127.5 L 117.5 127 Q 119 129.5 120.5 126 Q 123.8 124.9 123 127.5 L 124.5 127 L 130 129 L 130.5 131 L 131.5 129 L 132.5 131 L 137 123.5 L 135.5 124 Q 128.6 126 130 122 L 134 119.5 Q 134.7 116.9 132 118 L 132 115.5 L 132.5 114 L 128.5 114 L 125 116 Q 126.1 113.3 123.5 114 Q 119.4 111.1 119 104.5 L 120.5 105 L 126 108 L 128.5 112 L 130 111.5 L 130.5 113 L 133 107.5 L 132 103.5 L 135.5 99 L 133 99 Q 134.3 96 130.5 97 L 129 100.5 L 131 105 L 128.5 106 L 123 102.5 L 122 99 Q 117.9 100.3 119 97 Q 121.7 98.1 121 95.5 L 120.5 94 L 123 94.5 L 122.5 96 L 124.5 95 L 126 95.5 L 125 88.5 L 127.5 85 Z " /><path fill="rgb(93,154,80)" stroke="rgb(93,154,80)" stroke-width="1" opacity="0.996078431372549" d="M 196.5 86 L 200 94.5 L 200 100 L 202.5 101 L 203 99.5 Q 200.4 98.1 201 93.5 L 202.5 91 Q 203.8 93.3 205 90.5 L 204.5 89 L 203 89.5 Q 204.5 86.5 206 89.5 L 204 93.5 L 207 92.5 L 203 109.5 L 204 109.5 L 207 104 L 209 103.5 L 208 101.5 L 210 98.5 L 209.5 97 L 211 97.5 L 211.5 96 L 212.5 100 L 213.5 96 L 214 99.5 L 213 101.5 Q 215.5 103 214 108.5 L 213 108.5 L 211 101 L 209 101.5 L 210 103.5 L 203 111.5 L 203 113.5 L 209 109.5 L 203.5 116 Q 202.3 113.7 201 116.5 L 199.5 119 L 199 117.5 L 199 115.5 L 198.5 113 L 197 116.5 L 198 119.5 L 198 121.5 L 197.5 126 L 196.5 121 Q 194.2 125.3 192 123.5 L 191 125.5 L 192 126.5 L 188.5 130 L 188 128 Q 191 129.3 190 125.5 L 191 123.5 L 190 121.5 L 192 121.5 L 190.5 117 L 189.5 120 L 188 117.5 L 189 114 Q 191.7 115.1 191 112.5 L 190 111.5 L 190 101 Q 193 100 192 103 L 194.5 103 L 196 103.5 Q 196.6 98.1 195 96 L 192 97.5 L 192.5 99 L 190.5 100 L 191 98.5 L 193.5 94 L 196 95 L 196.5 97 L 197 88.5 L 196.5 86 Z M 203 93 L 203 96 Q 206 95 203 93 Z M 199 99 L 197 102 L 198 105 L 199 103 L 199 110 L 200 110 Q 201 102 199 99 Z M 192 104 L 191 107 Q 189 111 193 110 Q 194 112 195 110 L 193 106 L 195 105 L 192 104 Z M 202 105 L 201 109 L 202 109 L 202 105 Z M 193 111 L 193 115 L 192 117 L 194 120 L 194 119 L 194 117 L 196 113 L 193 111 Z M 196 118 L 193 123 L 196 121 L 196 118 Z " /><path fill="rgb(93,154,80)" stroke="rgb(93,154,80)" stroke-width="1" opacity="0.996078431372549" d="M 208.5 91 Q 212.5 90.5 213 93.5 L 212.5 95 L 210.5 92 Q 208.7 94.5 208.5 91 Z " /><path fill="rgb(93,154,80)" stroke="rgb(93,154,80)" stroke-width="1" opacity="0.996078431372549" d="M 144.5 107 L 154 107.5 L 151 108.5 L 158 110 Q 159.1 107.3 156.5 108 L 156.5 107 L 159 107 Q 158 110 161 109 L 161 111.5 L 162 114 L 159 112.5 L 159.5 111 L 156.5 112 L 154.5 112 L 152.5 111 L 149.5 112 L 147.5 112 L 143.5 114 L 142 110.5 L 144.5 107 Z M 148 108 L 150 110 Q 151 107 148 108 Z M 145 110 L 145 111 L 148 111 L 145 110 Z " /><path fill="rgb(93,154,80)" stroke="rgb(93,154,80)" stroke-width="1" opacity="0.996078431372549" d="M 212.5 110 L 214 111.5 L 215 118.5 L 213 121.5 L 213 123.5 Q 213.8 127.3 211.5 128 L 209.5 129 L 208 126.5 Q 210.2 125.3 207.5 124 L 206.5 127 L 205.5 123 L 203.5 124 L 201.5 121 L 203 121.5 L 202 117 L 204 117.5 L 203 119.5 L 205.5 118 L 207 117.5 L 205 116.5 L 210.5 114 L 210.5 115 L 208 116.5 Q 207.3 118.8 209.5 118 L 210.5 117 L 213 118.5 L 211 111.5 L 212.5 110 Z M 208 118 L 207 122 L 209 123 L 208 118 Z M 212 120 L 210 124 L 211 126 L 212 124 L 212 120 Z " /><path fill="rgb(93,154,80)" stroke="rgb(93,154,80)" stroke-width="1" opacity="0.996078431372549" d="M 165.5 113 L 168.5 117 L 165.5 113 Z " /><path fill="rgb(93,154,80)" stroke="rgb(93,154,80)" stroke-width="1" opacity="0.996078431372549" d="M 117.5 114 L 122.5 115 L 128 119.5 L 129 123.5 L 126.5 125 L 119 119.5 L 117.5 114 Z " /><path fill="rgb(93,154,80)" stroke="rgb(93,154,80)" stroke-width="1" opacity="0.996078431372549" d="M 161.5 116 L 148 130.5 L 147.5 132 L 147 130.5 L 161.5 116 Z " /><path fill="rgb(93,154,80)" stroke="rgb(93,154,80)" stroke-width="1" opacity="0.996078431372549" d="M 165.5 119 L 167 124 L 171 125.5 L 169.5 126 L 166 124.5 L 165.5 122 L 164 122.5 L 165.5 119 Z " /><path fill="rgb(93,154,80)" stroke="rgb(93,154,80)" stroke-width="1" opacity="0.996078431372549" d="M 161.5 121 L 164 125.5 L 162 124.5 L 161.5 123 L 161 125 L 158.5 126 L 160 123.5 L 161.5 121 Z " /><path fill="rgb(93,154,80)" stroke="rgb(93,154,80)" stroke-width="1" opacity="0.996078431372549" d="M 172.5 121 L 183 132.5 L 182 132.5 L 172.5 121 Z " /><path fill="rgb(93,154,80)" stroke="rgb(93,154,80)" stroke-width="1" opacity="0.996078431372549" d="M 187.5 122 L 188 124.5 L 187 124.5 L 187.5 122 Z " /><path fill="rgb(93,154,80)" stroke="rgb(93,154,80)" stroke-width="1" opacity="0.996078431372549" d="M 200 125 L 202 125.5 L 200 126.5 L 200 125 Z " /><path fill="rgb(93,154,80)" stroke="rgb(93,154,80)" stroke-width="1" opacity="0.996078431372549" d="M 203 126 L 205 126.5 L 204 128.5 L 204.5 130 L 203 126 Z " /><path fill="rgb(93,154,80)" stroke="rgb(93,154,80)" stroke-width="1" opacity="0.996078431372549" d="M 207.5 129 L 208.5 131 L 207 131.5 Q 209.5 133 206 134.5 L 205.5 136 L 205 134.5 L 205.5 133 L 202 135.5 L 201.5 137 L 200.5 135 L 195.5 138 L 196.5 136 L 200 135 L 202.5 130 L 202.5 132 Q 206.3 132.8 207 130.5 L 207.5 129 Z " /><path fill="rgb(93,154,80)" stroke="rgb(93,154,80)" stroke-width="1" opacity="0.996078431372549" d="M 160 131 Q 163.3 129.9 162 134 L 166.5 134 L 171.5 133 L 176 134 Q 177.5 137.8 174.5 137 L 165.5 143 L 163.5 142 L 162 142.5 L 162.5 141 L 160.5 140 L 159 140.5 L 159.5 139 L 154 135.5 Q 152.7 131.3 157.5 133 L 160 134 L 160 131 Z " /><path fill="rgb(93,154,80)" stroke="rgb(93,154,80)" stroke-width="1" opacity="0.996078431372549" d="M 190.5 131 L 190.5 134 Q 187.5 132.5 190.5 131 Z " /><path fill="rgb(93,154,80)" stroke="rgb(93,154,80)" stroke-width="1" opacity="0.996078431372549" d="M 140.5 132 L 142.5 136 L 144 135.5 L 144 137.5 Q 144.8 141.3 142.5 142 L 136 141 L 138 134 Q 140.8 135 140.5 132 Z " /><path fill="rgb(93,154,80)" stroke="rgb(93,154,80)" stroke-width="1" opacity="0.996078431372549" d="M 192.5 132 L 193.5 134 L 192.5 132 Z " /><path fill="rgb(93,154,80)" stroke="rgb(93,154,80)" stroke-width="1" opacity="0.996078431372549" d="M 196.5 132 L 195.5 134 L 196.5 132 Z " /><path fill="rgb(93,154,80)" stroke="rgb(93,154,80)" stroke-width="1" opacity="0.996078431372549" d="M 180.5 133 L 179.5 135 L 180.5 133 Z " /><path fill="rgb(93,154,80)" stroke="rgb(93,154,80)" stroke-width="1" opacity="0.996078431372549" d="M 186 133 L 189 134.5 L 188 135.5 L 189.5 138 L 186 137 L 185 141 L 182.5 142 L 180 141.5 L 186 133 Z " /><path fill="rgb(93,154,80)" stroke="rgb(93,154,80)" stroke-width="1" opacity="0.996078431372549" d="M 149.5 135 Q 153.7 137.9 154 144 L 148 144 L 148 137.5 L 149.5 135 Z " /><path fill="rgb(93,154,80)" stroke="rgb(93,154,80)" stroke-width="1" opacity="0.996078431372549" d="M 131.5 138 L 134 139 L 134 142 Q 138.1 140.7 137 144 L 133 144 L 133 142.5 L 131.5 138 Z " /><path fill="rgb(93,154,80)" stroke="rgb(93,154,80)" stroke-width="1" opacity="0.996078431372549" d="M 123.5 139 Q 125.8 138.3 125 140.5 L 127 145 L 123 143.5 L 123.5 142 L 121 140.5 L 123.5 139 Z " /><path fill="rgb(93,154,80)" stroke="rgb(93,154,80)" stroke-width="1" opacity="0.996078431372549" d="M 188.5 142 L 187.5 144 L 188.5 142 Z " /><path fill="rgb(93,154,80)" stroke="rgb(93,154,80)" stroke-width="1" opacity="0.996078431372549" d="M 143.5 149 L 148 149 L 148 153 L 149.5 153 L 149.5 154 L 141.5 158 L 138.5 158 L 138.5 157 L 140 156.5 L 135 155.5 L 138.5 151 L 143.5 149 Z " /><path fill="rgb(93,154,80)" stroke="rgb(93,154,80)" stroke-width="1" opacity="0.996078431372549" d="M 193.5 149 Q 200.7 149.8 203 155.5 L 202.5 157 L 201.5 155 Q 200.3 157.2 199 154.5 L 199.5 153 L 193.5 150 L 193.5 149 Z " /><path fill="rgb(93,154,80)" stroke="rgb(93,154,80)" stroke-width="1" opacity="0.996078431372549" d="M 183.5 151 L 189 151.5 L 183.5 152 L 183.5 151 Z " /><path fill="rgb(93,154,80)" stroke="rgb(93,154,80)" stroke-width="1" opacity="0.996078431372549" d="M 191.5 152 L 197 154.5 L 195.5 154 L 191.5 153 L 191.5 152 Z " /><path fill="rgb(93,154,80)" stroke="rgb(93,154,80)" stroke-width="1" opacity="0.996078431372549" d="M 174.5 154 L 185 154.5 L 174 155 Q 175.1 158.3 171 157 Q 169.8 154 173.5 155 L 174.5 154 Z " /><path fill="rgb(93,154,80)" stroke="rgb(93,154,80)" stroke-width="1" opacity="0.996078431372549" d="M 142.5 161 L 147 161.5 Q 146 164 141.5 163 L 142.5 161 Z " /><path fill="rgb(109,75,35)" stroke="rgb(109,75,35)" stroke-width="1" opacity="0.996078431372549" d="M 159.5 78 L 158.5 80 L 159.5 78 Z " /><path fill="rgb(109,75,35)" stroke="rgb(109,75,35)" stroke-width="1" opacity="0.996078431372549" d="M 160.5 80 L 159.5 82 L 160.5 80 Z " /><path fill="rgb(109,75,35)" stroke="rgb(109,75,35)" stroke-width="1" opacity="0.996078431372549" d="M 155.5 81 L 158 82.5 L 156.5 83 L 155.5 81 Z " /><path fill="rgb(109,75,35)" stroke="rgb(109,75,35)" stroke-width="1" opacity="0.996078431372549" d="M 125.5 84 Q 127.8 83.3 127 85.5 L 125.5 84 Z " /><path fill="rgb(109,75,35)" stroke="rgb(109,75,35)" stroke-width="1" opacity="0.996078431372549" d="M 128.5 85 L 131 88.5 L 130 88.5 Q 130.7 85.9 128 87 L 128.5 85 Z " /><path fill="rgb(109,75,35)" stroke="rgb(109,75,35)" stroke-width="1" opacity="0.996078431372549" d="M 138.5 88 L 139 91.5 L 138 91.5 L 138.5 88 Z " /><path fill="rgb(109,75,35)" stroke="rgb(109,75,35)" stroke-width="1" opacity="0.996078431372549" d="M 132 91 L 134 91.5 L 132.5 95 L 132 91 Z " /><path fill="rgb(109,75,35)" stroke="rgb(109,75,35)" stroke-width="1" opacity="0.996078431372549" d="M 141.5 91 L 140.5 93 L 141.5 91 Z " /><path fill="rgb(109,75,35)" stroke="rgb(109,75,35)" stroke-width="1" opacity="0.996078431372549" d="M 160.5 91 L 163 92.5 L 161.5 92 L 159 93.5 L 160.5 96 Q 158.3 96.8 159 94.5 Q 156.2 92.7 160.5 91 Z " /><path fill="rgb(109,75,35)" stroke="rgb(109,75,35)" stroke-width="1" opacity="0.996078431372549" d="M 204 92 L 206 92.5 L 203 94.5 L 204 92 Z " /><path fill="rgb(109,75,35)" stroke="rgb(109,75,35)" stroke-width="1" opacity="0.996078431372549" d="M 207 92 L 209 92.5 L 207 97 L 209 97.5 L 207.5 98 L 206 95.5 L 207 92 Z " /><path fill="rgb(109,75,35)" stroke="rgb(109,75,35)" stroke-width="1" opacity="0.996078431372549" d="M 200.5 96 L 201 99.5 L 200 99.5 L 200.5 96 Z " /><path fill="rgb(109,75,35)" stroke="rgb(109,75,35)" stroke-width="1" opacity="0.996078431372549" d="M 130.5 97 Q 133.8 95.9 133 98.5 L 133.5 100 L 130 98 L 131.5 102 L 133 101.5 L 130 103 L 129 98.5 L 130.5 97 Z " /><path fill="rgb(109,75,35)" stroke="rgb(109,75,35)" stroke-width="1" opacity="0.996078431372549" d="M 205.5 98 L 208 99.5 L 206 100.5 L 207 103 L 205 103.5 L 205 105.5 L 203.5 110 L 203 107.5 L 205.5 98 Z " /><path fill="rgb(109,75,35)" stroke="rgb(109,75,35)" stroke-width="1" opacity="0.996078431372549" d="M 197.5 101 L 198 104.5 L 197 104.5 L 197.5 101 Z " /><path fill="rgb(109,75,35)" stroke="rgb(109,75,35)" stroke-width="1" opacity="0.996078431372549" d="M 195.5 103 L 194.5 105 L 195.5 103 Z " /><path fill="rgb(109,75,35)" stroke="rgb(109,75,35)" stroke-width="1" opacity="0.996078431372549" d="M 139.5 104 L 140 106.5 L 139 106.5 L 139.5 104 Z " /><path fill="rgb(109,75,35)" stroke="rgb(109,75,35)" stroke-width="1" opacity="0.996078431372549" d="M 129.5 105 L 133 107.5 L 132.5 109 L 130.5 106 Q 128.3 105.3 129 107.5 L 130 110.5 L 128 109.5 Q 127.3 105.8 129.5 105 Z " /><path fill="rgb(109,75,35)" stroke="rgb(109,75,35)" stroke-width="1" opacity="0.996078431372549" d="M 201.5 105 L 202 108.5 L 201 108.5 L 201.5 105 Z " /><path fill="rgb(109,75,35)" stroke="rgb(109,75,35)" stroke-width="1" opacity="0.996078431372549" d="M 207.5 109 L 203.5 114 L 203.5 111 L 204.5 112 L 207.5 109 Z " /><path fill="rgb(109,75,35)" stroke="rgb(109,75,35)" stroke-width="1" opacity="0.996078431372549" d="M 209.5 109 L 210 110.5 L 203.5 119 L 203.5 117 Q 200.9 116.2 202 119.5 L 203.5 122 L 205.5 119 L 206 120.5 L 203 123.5 L 203 125.5 Q 203.8 127.8 201.5 127 Q 197.3 128.8 200 130.5 L 198 133.5 L 201 135.5 L 199.5 135 L 198 135.5 L 198.5 137 L 196 135.5 L 197 137.5 L 195 137.5 L 190 143.5 L 195 144.5 L 186 145 L 188.5 140 L 190 140.5 L 189 138.5 L 191 138 Q 190.4 133.4 194 131.5 L 193 130.5 L 196 127.5 L 195 126.5 L 195 122.5 Q 198.5 122 198 117.5 L 197 114.5 L 198.5 113 L 200 116.5 L 199 118.5 L 201 117.5 L 202.5 115 L 203.5 116 L 209 110.5 L 209.5 109 Z M 198 121 L 197 126 L 198 126 L 198 121 Z M 200 125 L 200 127 L 202 126 L 200 125 Z " /><path fill="rgb(109,75,35)" stroke="rgb(109,75,35)" stroke-width="1" opacity="0.996078431372549" d="M 135.5 110 L 135 111.5 L 132 115.5 L 132 118.5 L 128.5 125 L 129 123.5 L 129 119.5 Q 132.3 120.3 131 115 L 127.5 116 L 128.5 114 Q 133 115 134 112.5 L 135.5 110 Z " /><path fill="rgb(109,75,35)" stroke="rgb(109,75,35)" stroke-width="1" opacity="0.996078431372549" d="M 145.5 110 L 151.5 112 L 153 111.5 L 152 118 L 150 117.5 L 151 115 L 147 113.5 L 148 111 Q 144.7 111.7 145.5 110 Z " /><path fill="rgb(109,75,35)" stroke="rgb(109,75,35)" stroke-width="1" opacity="0.996078431372549" d="M 157 111 L 160 111.5 L 159.5 114 L 158 114.5 L 158.5 116 Q 156 114.8 157 111 Z " /><path fill="rgb(109,75,35)" stroke="rgb(109,75,35)" stroke-width="1" opacity="0.996078431372549" d="M 145.5 112 L 144.5 114 L 145.5 112 Z " /><path fill="rgb(109,75,35)" stroke="rgb(109,75,35)" stroke-width="1" opacity="0.996078431372549" d="M 208.5 114 L 210 115.5 L 209.5 118 Q 207.3 118.8 208 116.5 Q 205.8 115.3 208.5 114 Z " /><path fill="rgb(109,75,35)" stroke="rgb(109,75,35)" stroke-width="1" opacity="0.996078431372549" d="M 188.5 118 L 189.5 120 L 191.5 119 L 189 122.5 Q 188 127.5 191 128.5 Q 188.3 129.6 189 133 L 186 132.5 L 187 130 L 190 128.5 L 188 128 L 188.5 118 Z " /><path fill="rgb(109,75,35)" stroke="rgb(109,75,35)" stroke-width="1" opacity="0.996078431372549" d="M 131 124 L 134 124.5 L 133.5 127 L 131 125.5 L 131 124 Z " /><path fill="rgb(109,75,35)" stroke="rgb(109,75,35)" stroke-width="1" opacity="0.996078431372549" d="M 207.5 124 Q 210.8 125.8 207 127.5 L 206.5 129 L 206 127.5 L 207.5 124 Z " /><path fill="rgb(109,75,35)" stroke="rgb(109,75,35)" stroke-width="1" opacity="0.996078431372549" d="M 119.5 126 L 118.5 128 L 119.5 126 Z " /><path fill="rgb(109,75,35)" stroke="rgb(109,75,35)" stroke-width="1" opacity="0.996078431372549" d="M 123 126 L 125 126.5 L 123 127.5 L 123 126 Z " /><path fill="rgb(109,75,35)" stroke="rgb(109,75,35)" stroke-width="1" opacity="0.996078431372549" d="M 127.5 127 L 130.5 129 L 132 128.5 L 130.5 131 L 130 129 L 127.5 127 Z " /><path fill="rgb(109,75,35)" stroke="rgb(109,75,35)" stroke-width="1" opacity="0.996078431372549" d="M 127.5 131 L 128.5 133 L 127.5 131 Z " /><path fill="rgb(109,75,35)" stroke="rgb(109,75,35)" stroke-width="1" opacity="0.996078431372549" d="M 140.5 131 L 143 132.5 L 144 134.5 L 143.5 136 Q 146.9 135.1 145 140.5 L 143 141.5 L 144 137.5 Q 140 135.3 140.5 131 Z " /><path fill="rgb(109,75,35)" stroke="rgb(109,75,35)" stroke-width="1" opacity="0.996078431372549" d="M 131 132 L 134 133.5 L 129.5 136 L 129.5 135 Q 132.5 135.7 131 132 Z " /><path fill="rgb(109,75,35)" stroke="rgb(109,75,35)" stroke-width="1" opacity="0.996078431372549" d="M 148.5 133 L 151 134 L 150.5 136 L 148.5 133 Z " /><path fill="rgb(109,75,35)" stroke="rgb(109,75,35)" stroke-width="1" opacity="0.996078431372549" d="M 131.5 137 L 137 138.5 L 136 141 Q 140.6 139.8 142 142.5 L 140.5 142 L 138 143.5 L 144 144.5 L 137 145 L 137 142 L 134 142 Q 135.5 138.3 132.5 139 L 131 139.5 L 131.5 137 Z " /><path fill="rgb(109,75,35)" stroke="rgb(109,75,35)" stroke-width="1" opacity="0.996078431372549" d="M 182.5 138 L 181.5 142 L 180 141.5 L 178.5 144 L 177 143.5 L 182.5 138 Z " /><path fill="rgb(109,75,35)" stroke="rgb(109,75,35)" stroke-width="1" opacity="0.996078431372549" d="M 120.5 140 L 121.5 142 L 120.5 140 Z " /><path fill="rgb(109,75,35)" stroke="rgb(109,75,35)" stroke-width="1" opacity="0.996078431372549" d="M 125.5 140 L 127 142.5 L 126 142.5 L 125.5 140 Z " /><path fill="rgb(109,75,35)" stroke="rgb(109,75,35)" stroke-width="1" opacity="0.996078431372549" d="M 205.5 140 L 205 141.5 L 204.5 143 L 204 141.5 L 205.5 140 Z " /><path fill="rgb(109,75,35)" stroke="rgb(109,75,35)" stroke-width="1" opacity="0.996078431372549" d="M 123.5 142 L 122.5 144 L 123.5 142 Z " /><path fill="rgb(109,75,35)" stroke="rgb(109,75,35)" stroke-width="1" opacity="0.996078431372549" d="M 161.5 145 L 162.5 147 L 161.5 145 Z " /><path fill="rgb(109,75,35)" stroke="rgb(109,75,35)" stroke-width="1" opacity="0.996078431372549" d="M 169.5 147 L 170 148.5 L 168 149.5 L 169.5 147 Z " /><path fill="rgb(109,75,35)" stroke="rgb(109,75,35)" stroke-width="1" opacity="0.996078431372549" d="M 152.5 148 L 155 148.5 L 152.5 149 L 152.5 148 Z " /><path fill="rgb(109,75,35)" stroke="rgb(109,75,35)" stroke-width="1" opacity="0.996078431372549" d="M 161.5 148 L 162.5 150 L 161.5 148 Z " /><path fill="rgb(109,75,35)" stroke="rgb(109,75,35)" stroke-width="1" opacity="0.996078431372549" d="M 176.5 148 L 185 149.5 L 182 150.5 L 182.5 152 L 174 154.5 L 174.5 156 L 171 155 L 171.5 152 L 173 152.5 L 172 149.5 L 174 149 L 174.5 151 L 177 149.5 L 176.5 148 Z " /><path fill="rgb(109,75,35)" stroke="rgb(109,75,35)" stroke-width="1" opacity="0.996078431372549" d="M 140.5 149 L 143 149.5 L 139.5 151 L 140.5 149 Z " /><path fill="rgb(109,75,35)" stroke="rgb(109,75,35)" stroke-width="1" opacity="0.996078431372549" d="M 157 149 L 159 149.5 L 158 152 L 156 152.5 L 158.5 153 Q 159.8 150.8 161 153.5 L 157.5 155 L 155 154 L 154.5 156 L 154 153 L 150.5 154 L 148 152.5 L 150.5 151 L 153.5 152 L 157 151 L 157 149 Z " /><path fill="rgb(109,75,35)" stroke="rgb(109,75,35)" stroke-width="1" opacity="0.996078431372549" d="M 145.5 151 L 146.5 153 L 144.5 153 L 141.5 155 L 143.5 152 L 145.5 151 Z " /><path fill="rgb(109,75,35)" stroke="rgb(109,75,35)" stroke-width="1" opacity="0.996078431372549" d="M 189 151 Q 192 150 191 153 Q 188 154 189 151 Z " /><path fill="rgb(109,75,35)" stroke="rgb(109,75,35)" stroke-width="1" opacity="0.996078431372549" d="M 197.5 152 L 198.5 154 L 197.5 152 Z " /><path fill="rgb(109,75,35)" stroke="rgb(109,75,35)" stroke-width="1" opacity="0.996078431372549" d="M 136.5 153 L 134.5 156 L 136.5 153 Z " /><path fill="rgb(109,75,35)" stroke="rgb(109,75,35)" stroke-width="1" opacity="0.996078431372549" d="M 195.5 154 L 198 155 L 197.5 157 L 195.5 154 Z " /><path fill="rgb(109,75,35)" stroke="rgb(109,75,35)" stroke-width="1" opacity="0.996078431372549" d="M 185.5 155 L 190 156.5 L 188.5 157 L 185.5 156 L 185.5 155 Z " /><path fill="rgb(109,75,35)" stroke="rgb(109,75,35)" stroke-width="1" opacity="0.996078431372549" d="M 138.5 156 L 140 156.5 L 138 157.5 L 138.5 159 Q 136.3 159.8 137 157.5 L 138.5 156 Z " /><path fill="rgb(109,75,35)" stroke="rgb(109,75,35)" stroke-width="1" opacity="0.996078431372549" d="M 157 157 Q 161.1 155.7 160 159 Q 155.9 160.3 157 157 Z " /><path fill="rgb(109,75,35)" stroke="rgb(109,75,35)" stroke-width="1" opacity="0.996078431372549" d="M 171.5 157 L 175.5 158 L 178.5 157 L 183.5 160 L 185.5 159 L 189 160 Q 190.3 163.7 184.5 162 L 176.5 159 L 174.5 159 Q 170.7 159.5 171.5 157 Z " /><path fill="rgb(109,75,35)" stroke="rgb(109,75,35)" stroke-width="1" opacity="0.996078431372549" d="M 152.5 158 Q 156.3 157 155 160 L 152.5 161 Q 149.5 159.5 152.5 158 Z " /><path fill="rgb(109,75,35)" stroke="rgb(109,75,35)" stroke-width="1" opacity="0.996078431372549" d="M 147.5 159 Q 150.5 158.2 149 162 L 143 160.5 L 147.5 159 Z " /><path fill="rgb(109,75,35)" stroke="rgb(109,75,35)" stroke-width="1" opacity="0.996078431372549" d="M 163.5 160 L 165.5 160 L 168 162.5 L 165.5 161 L 163 162.5 L 163.5 160 Z " /><path fill="rgb(109,75,35)" stroke="rgb(109,75,35)" stroke-width="1" opacity="0.996078431372549" d="M 141.5 161 L 140.5 163 L 141.5 161 Z " /><path fill="rgb(208,12,39)" stroke="rgb(208,12,39)" stroke-width="1" opacity="1" d="M 1.5 0 L 329 0.5 L 201 85 L 200.5 80 L 197.5 81 L 187.5 84 L 187.5 83 L 197.5 78 L 199 78.5 L 197 72 L 194.5 71 L 191 73.5 Q 191.8 76.1 188.5 75 L 183.5 79 L 186.5 75 L 194 68.5 L 187 63 L 180.5 72 L 182 69.5 L 183 65 Q 185.7 66.1 185 63.5 L 186 61 L 178.5 58 Q 180.1 59.8 177 61.5 L 175 66.5 Q 177.3 67.8 174.5 69 L 174 66.5 L 176 62.5 L 177 57 L 168 56 L 169 61.5 L 168 62.5 L 168 70.5 L 166.5 72 L 166 70.5 L 167 69.5 L 167 56 L 158 57 L 160 61.5 L 160 63.5 L 161 70.5 L 160 70.5 L 158 66.5 L 159 65.5 L 157 61.5 L 155.5 58 L 148 61.5 L 153 69.5 L 150 67.5 L 146.5 63 L 141 67.5 Q 139.9 70.8 142.5 70 L 148.5 77 Q 146.3 77.8 147 75.5 L 138 70 L 135 78 L 144 81.5 L 142.5 82 L 138.5 80 L 134.5 79 L 133 80.5 L 132 87 L 135 87.5 L 133.5 89 L 128.5 84 L 124.5 83 L 1.5 1 L 1.5 0 Z " /><path fill="rgb(208,12,39)" stroke="rgb(208,12,39)" stroke-width="1" opacity="1" d="M 153.5 71 L 154.5 73 L 153.5 71 Z " /><path fill="rgb(208,12,39)" stroke="rgb(208,12,39)" stroke-width="1" opacity="1" d="M 179.5 73 L 178.5 75 L 179.5 73 Z " /><path fill="rgb(208,12,39)" stroke="rgb(208,12,39)" stroke-width="1" opacity="1" d="M 155 74 L 157 74.5 L 155 75.5 L 155 74 Z " /><path fill="rgb(208,12,39)" stroke="rgb(208,12,39)" stroke-width="1" opacity="1" d="M 185.5 83 L 184.5 85 L 185.5 83 Z " /><path fill="rgb(208,12,39)" stroke="rgb(208,12,39)" stroke-width="1" opacity="1" d="M 139 88 L 143 88.5 L 139.5 93 L 139 88 Z " /><path fill="rgb(208,12,39)" stroke="rgb(208,12,39)" stroke-width="1" opacity="1" d="M 195.5 88 L 193.5 91 L 191.5 92 L 189.5 89 Q 194.3 90.3 195.5 88 Z " /><path fill="rgb(208,12,39)" stroke="rgb(208,12,39)" stroke-width="1" opacity="1" d="M 163.5 96 L 163 97.5 L 162.5 101 L 162 97.5 L 163.5 96 Z " /><path fill="rgb(208,12,39)" stroke="rgb(208,12,39)" stroke-width="1" opacity="1" d="M 156.5 102 L 159.5 106 L 156.5 102 Z " /><path fill="rgb(208,12,39)" stroke="rgb(208,12,39)" stroke-width="1" opacity="1" d="M 179.5 102 L 180.5 104 L 179.5 102 Z " /><path fill="rgb(208,12,39)" stroke="rgb(208,12,39)" stroke-width="1" opacity="1" d="M 165.5 111 L 168 112.5 L 166.5 112 L 165.5 111 Z " /><path fill="rgb(208,12,39)" stroke="rgb(208,12,39)" stroke-width="1" opacity="1" d="M 175.5 119 L 179.5 124 L 175.5 119 Z " /><path fill="rgb(208,12,39)" stroke="rgb(208,12,39)" stroke-width="1" opacity="1" d="M 185.5 119 Q 188.5 120.5 185.5 122 L 185.5 119 Z " /><path fill="rgb(208,12,39)" stroke="rgb(208,12,39)" stroke-width="1" opacity="1" d="M 141.5 126 L 141 127.5 L 144.5 132 L 148 134.5 L 147 141.5 L 148 144 L 142 143.5 L 146 139.5 L 146 137.5 L 141.5 130 Q 139.3 129.3 140 131.5 L 136 134.5 L 141.5 126 Z " /><path fill="rgb(208,12,39)" stroke="rgb(208,12,39)" stroke-width="1" opacity="1" d="M 191.5 128 L 194 129.5 L 191 130 L 191.5 128 Z " /><path fill="rgb(208,12,39)" stroke="rgb(208,12,39)" stroke-width="1" opacity="1" d="M 184.5 133 L 186 133.5 L 175.5 144 Q 170.1 143.4 168 145 L 167 152 Q 163.3 153.5 164 150.5 L 163 145 L 155 144 L 153 138.5 L 154.5 138 L 165.5 145 L 178 138 L 177 135.5 L 178.5 135 L 180.5 136 L 184.5 133 Z " /><path fill="rgb(208,12,39)" stroke="rgb(208,12,39)" stroke-width="1" opacity="1" d="M 198.5 133 L 197.5 135 L 198.5 133 Z " /><path fill="rgb(208,12,39)" stroke="rgb(208,12,39)" stroke-width="1" opacity="1" d="M 189.5 135 Q 191.8 134.3 191 136.5 L 189.5 135 Z " /><path fill="rgb(208,12,39)" stroke="rgb(208,12,39)" stroke-width="1" opacity="1" d="M 199.5 137 L 200 138.5 L 196.5 144 L 190 143.5 L 199.5 137 Z " /><path fill="rgb(208,12,39)" stroke="rgb(208,12,39)" stroke-width="1" opacity="1" d="M 188.5 138 L 188 139.5 L 185.5 144 Q 183.3 144.8 184 142.5 L 186.5 139 L 188.5 138 Z " /><path fill="rgb(208,12,39)" stroke="rgb(208,12,39)" stroke-width="1" opacity="1" d="M 206.5 138 L 329 219.5 L 1.5 220 L 1.5 219 L 119.5 141 L 122 142.5 L 121 145 L 127.5 145 L 138 150.5 L 134 155.5 L 137 156 Q 135.3 160.5 140.5 159 L 152.5 153 Q 155 154.2 154 158 L 140 161 Q 138.2 165.9 144.5 164 L 155.5 161 Q 158.4 163.6 164.5 163 L 166.5 162 L 170.5 163 L 177.5 160 Q 182.1 163.1 190 162 Q 191.3 159 187.5 160 L 177 156.5 Q 178.8 154.3 183.5 155 L 192.5 158 L 191.5 156 L 181 152.5 L 186.5 152 L 194.5 154 L 197 156.5 Q 196.3 159.1 199 158 L 197 154.5 L 199.5 156 L 203.5 158 L 204 156.5 L 198 149.5 L 205 143.5 L 206.5 138 Z " /><path fill="rgb(208,12,39)" stroke="rgb(208,12,39)" stroke-width="1" opacity="1" d="M 154.5 149 Q 156.8 148.3 156 150.5 L 154.5 149 Z " /><path fill="rgb(208,12,39)" stroke="rgb(208,12,39)" stroke-width="1" opacity="1" d="M 184.5 150 Q 193.2 148.3 196 152.5 L 194.5 152 L 184.5 151 L 184.5 150 Z " /><path fill="rgb(208,12,39)" stroke="rgb(208,12,39)" stroke-width="1" opacity="1" d="M 177.5 153 L 180 153.5 L 177.5 154 L 177.5 153 Z " /></svg>